<?xml version="1.0" encoding="utf-8"?>
<!-- Generator: Adobe Illustrator 22.0.1, SVG Export Plug-In . SVG Version: 6.00 Build 0)  -->
<svg version="1.1" id="Layer_1" xmlns="http://www.w3.org/2000/svg" xmlns:xlink="http://www.w3.org/1999/xlink" x="0px" y="0px"
	 viewBox="0 0 1440 360" style="enable-background:new 0 0 1440 360;" xml:space="preserve">
<style type="text/css">
	.st0{fill:#5767FF;}
	.st1{fill:#FFFFFF;}
	.st2{fill:#46474F;}
</style>
<path class="st0" d="M324,360H36c-19.8,0-36-16.2-36-36V36C0,16.2,16.2,0,36,0h288c19.8,0,36,16.2,36,36v288
	C360,343.8,343.8,360,324,360z"/>
<path class="st1" d="M225,105c-17.6,0-33.6,7.3-45,19c-11.4-11.7-27.4-19-45-19c-34.7,0-63,28.3-63,63v75c0,9.9,8.1,18,18,18
	s18-8.1,18-18v-75c0-14.9,12.1-27,27-27s27,12.1,27,27v75c0,9.9,8.1,18,18,18s18-8.1,18-18v-75c0-14.9,12.1-27,27-27s27,12.1,27,27
	v75c0,9.9,8.1,18,18,18s18-8.1,18-18v-75C288,133.3,259.7,105,225,105z"/>
<g>
	<path class="st2" d="M603,125.9c-14.7,0-27.8,6.7-36,17.1c-8.2-10.4-21.3-17.1-36-17.1c-24.8,0-45,19.2-45,42.8V225c0,5,4,9,9,9
		s9-4,9-9v-56.3c0-13.7,12.1-24.8,27-24.8s27,11.1,27,24.8V225c0,5,4,9,9,9s9-4,9-9v-56.3c0-13.7,12.1-24.8,27-24.8s27,11.1,27,24.8
		V225c0,5,4,9,9,9s9-4,9-9v-56.3C648,145.1,627.8,125.9,603,125.9z"/>
	<path class="st2" d="M999,126c-24.8,0-45,20.7-45,46.1V225c0,5,4,9,9,9s9-4,9-9v-52.9c0-15.5,12.1-28.1,27-28.1s27,12.6,27,28.1
		c0,5,4,9,9,9s9-4,9-9C1044,146.7,1023.8,126,999,126z"/>
	<path class="st2" d="M684,126c-5,0-9,4-9,9v90c0,5,4,9,9,9s9-4,9-9v-90C693,130,689,126,684,126z"/>
	<path class="st2" d="M1224,216h-17.4c-15.2,0-27.6-13.2-27.6-29.4V144h27c5,0,9-4,9-9s-4-9-9-9h-27V99c0-5-4-9-9-9s-9,4-9,9v87.6
		c0,26.1,20.5,47.4,45.6,47.4h17.4c5,0,9-4,9-9S1229,216,1224,216z"/>
	<path class="st2" d="M1332,126c-5,0-9,4-9,9v4.8c-9.6-8.6-22.2-13.8-36-13.8c-29.8,0-54,24.2-54,54c0,29.8,24.2,54,54,54
		c13.8,0,26.4-5.2,36-13.8v4.8c0,5,4,9,9,9s9-4,9-9v-90C1341,130,1337,126,1332,126z M1287,216c-19.9,0-36-16.1-36-36s16.1-36,36-36
		s36,16.1,36,36S1306.9,216,1287,216z"/>
	<path class="st2" d="M1088.6,147.2c4.3-2.2,9.1-3.3,13.9-3.3c11.8,0,19.8,3.2,24,9.4c2.8,4.1,8.4,5.2,12.5,2.5
		c4.1-2.8,5.2-8.4,2.5-12.5c-7.6-11.4-21.1-17.4-39-17.4c-7.7,0-15.3,1.8-22.1,5.3c-10.9,5.6-17,16.2-16,27.8
		c1.1,11.9,9.2,21.5,21.2,25.2l28.4,8.7c5.8,1.8,8.2,6.2,8.6,9.6c0.2,2,0,6.8-5.8,9.9c-4.3,2.3-9.3,3.5-14.3,3.5
		c-11.8,0-19.8-3.2-24-9.4c-2.8-4.1-8.4-5.2-12.5-2.5c-4.1,2.8-5.2,8.4-2.5,12.5c7.6,11.4,21.1,17.4,39,17.4c8,0,15.9-2,22.8-5.7
		c10.5-5.6,16.3-16.1,15.2-27.5c-1.1-11.7-9.5-21.5-21.2-25.1l-28.4-8.7c-5-1.5-8.2-5.1-8.6-9.6
		C1082.2,155.4,1082.4,150.4,1088.6,147.2z"/>
	<path class="st2" d="M935.8,175.3c0-0.1,0-0.1,0-0.2c-2.6-28-25.7-49.1-53.8-49.1c-29.8,0-54,24.2-54,54c0,29.8,24.2,54,54,54
		c15.4,0,30-6.6,40.2-18c3.3-3.7,3-9.4-0.7-12.7s-9.4-3-12.7,0.7c-6.8,7.6-16.6,12-26.8,12c-16.7,0-30.9-11.5-34.9-27H927
		c5,0,9-4,9-9c0-1.6-0.1-3.1-0.2-4.5L935.8,175.3z M847.1,171c4-15.5,18.1-27,34.9-27c16.8,0,30.8,11.3,34.9,27H847.1z"/>
	<path class="st2" d="M684,90c-5,0-9,4-9,9v0.1c0,5,4,9,9,9s9-4,9-9V99C693,94,689,90,684,90z"/>
	<path class="st2" d="M765,126c-24.8,0-45,20.7-45,46.1V225c0,5,4,9,9,9s9-4,9-9v-52.9c0-15.5,12.1-28.1,27-28.1s27,12.6,27,28.1
		V225c0,5,4,9,9,9s9-4,9-9v-52.9C810,146.7,789.8,126,765,126z"/>
	<path class="st2" d="M1431,216h-17.4c-15.2,0-27.6-13.2-27.6-29.4V144h27c5,0,9-4,9-9s-4-9-9-9h-27V99c0-5-4-9-9-9s-9,4-9,9v87.6
		c0,26.1,20.5,47.4,45.6,47.4h17.4c5,0,9-4,9-9S1436,216,1431,216z"/>
</g>
</svg>
