<?xml version="1.0" encoding="utf-8"?>
<!-- Generator: Adobe Illustrator 22.1.0, SVG Export Plug-In . SVG Version: 6.00 Build 0)  -->
<svg version="1.1" id="Layer_1" xmlns="http://www.w3.org/2000/svg" xmlns:xlink="http://www.w3.org/1999/xlink" x="0px" y="0px"
	 width="150px" height="50px" viewBox="0 0 150 50" enable-background="new 0 0 150 50" xml:space="preserve">
<circle fill="none" stroke="#46474F" stroke-width="2" stroke-linecap="round" stroke-linejoin="round" stroke-miterlimit="10" cx="25" cy="25" r="18"/>
<path fill="none" stroke="#46474F" stroke-width="2" stroke-linecap="round" stroke-linejoin="round" stroke-miterlimit="10" d="
	M20,29L20,29c0,2.8,2.2,5,5,5h1.5c2.5,0,4.5-2,4.5-4.5l0,0c0-2.5-2-4.5-4.5-4.5h-2C22,25,20,23,20,20.5l0,0c0-2.5,2-4.5,4.5-4.5H26
	c2.8,0,5,2.2,5,5l0,0"/>
<line fill="none" stroke="#46474F" stroke-width="2" stroke-linecap="round" stroke-linejoin="round" stroke-miterlimit="10" x1="25" y1="12.6" x2="25" y2="15.4"/>
<line fill="none" stroke="#46474F" stroke-width="2" stroke-linecap="round" stroke-linejoin="round" stroke-miterlimit="10" x1="25" y1="34.6" x2="25" y2="37.4"/>
<path fill="none" stroke="#46474F" stroke-width="2" stroke-linecap="round" stroke-linejoin="round" stroke-miterlimit="10" d="
	M125.6,21.2l-15.9,15.9c-0.9,0.9-0.9,2.4,0,3.3l0,0c0.9,0.9,2.4,0.9,3.3,0l15.9-16"/>
<polyline fill="none" stroke="#46474F" stroke-width="2" stroke-linecap="round" stroke-linejoin="round" stroke-miterlimit="10" points="
	126.9,16.6 124.4,19.1 130.9,25.6 133.4,23.2 "/>
<path fill="none" stroke="#46474F" stroke-width="2" stroke-linecap="round" stroke-linejoin="round" stroke-miterlimit="10" d="
	M133,13.8l0.8-0.8c0.9-0.9,2.4-0.9,3.3,0l0,0c0.9,0.9,0.9,2.4,0,3.3l-0.8,0.8"/>
<path fill="none" stroke="#5767FF" stroke-width="2" stroke-linecap="round" stroke-linejoin="round" stroke-miterlimit="10" d="
	M111.2,18.8"/>
<path fill="none" stroke="#46474F" stroke-width="2" stroke-linecap="round" stroke-linejoin="round" stroke-miterlimit="10" d="
	M132.6,17.5"/>
<g>
	<path fill="none" stroke="#46474F" stroke-width="2" stroke-linecap="round" stroke-linejoin="round" stroke-miterlimit="10" d="
		M130.9,19.9c4.7,4.7,8.1,9.8,9.6,14.1c0.2,0.8,1.3,0.6,1.4-0.2c0.6-5.5-2-12.2-7.3-17.6c-5.4-5.4-12.1-8-17.6-7.3
		c-0.8,0.1-0.9,1.2-0.2,1.4C121.1,11.8,126.3,15.2,130.9,19.9z"/>
</g>
<circle fill="none" stroke="#46474F" stroke-width="2" stroke-linecap="round" stroke-linejoin="round" stroke-miterlimit="10" cx="25" cy="25" r="22"/>
<path fill="none" stroke="#46474F" stroke-width="2" stroke-linecap="round" stroke-linejoin="round" stroke-miterlimit="10" d="
	M67,35h26c1.1,0,2-0.9,2-2V7c0-1.1-0.9-2-2-2H67c-1.1,0-2,0.9-2,2v26C65,34.1,65.9,35,67,35z"/>
<path fill="none" stroke="#46474F" stroke-width="2" stroke-linecap="round" stroke-linejoin="round" stroke-miterlimit="10" d="
	M62,10c-1.1,0-2,0.9-2,2v26c0,1.1,0.9,2,2,2h26c1.1,0,2-0.9,2-2"/>
<path fill="none" stroke="#46474F" stroke-width="2" stroke-linecap="round" stroke-linejoin="round" stroke-miterlimit="10" d="
	M57,15c-1.1,0-2,0.9-2,2v26c0,1.1,0.9,2,2,2h26c1.1,0,2-0.9,2-2"/>
<path fill="none" stroke="#46474F" stroke-width="2" stroke-linecap="round" stroke-linejoin="round" stroke-miterlimit="10" d="
	M86,22L86,22v-1c0-3.3-2.7-6-6-6s-6,2.7-6,6v1l0,0c-1,0-2,0.9-2,2s0.9,2,2,2h12c1.1,0,2-0.9,2-2S87.1,22,86,22z"/>
<line fill="none" stroke="#46474F" stroke-width="2" stroke-linecap="round" stroke-linejoin="round" stroke-miterlimit="10" x1="78" y1="19" x2="78" y2="16"/>
<line fill="none" stroke="#46474F" stroke-width="2" stroke-linecap="round" stroke-linejoin="round" stroke-miterlimit="10" x1="82" y1="19" x2="82" y2="16"/>
<line fill="none" stroke="#46474F" stroke-width="2" stroke-linecap="round" stroke-linejoin="round" stroke-miterlimit="10" x1="86" y1="22" x2="85" y2="22"/>
<line fill="none" stroke="#46474F" stroke-width="2" stroke-linecap="round" stroke-linejoin="round" stroke-miterlimit="10" x1="75" y1="22" x2="74" y2="22"/>
</svg>
