<?xml version="1.0" encoding="utf-8"?>
<!-- Generator: Adobe Illustrator 22.1.0, SVG Export Plug-In . SVG Version: 6.00 Build 0)  -->
<svg version="1.1" id="Layer_1" xmlns="http://www.w3.org/2000/svg" xmlns:xlink="http://www.w3.org/1999/xlink" x="0px" y="0px"
	 width="40px" height="120px" viewBox="0 0 40 120" style="enable-background:new 0 0 40 120;" xml:space="preserve">
<style type="text/css">
	.st0{fill:none;stroke:#464850;stroke-width:2;stroke-linecap:round;stroke-linejoin:round;stroke-miterlimit:10;}
	.st1{fill:none;stroke:#5FC2A1;stroke-width:2;stroke-linecap:round;stroke-linejoin:round;stroke-miterlimit:10;}
	.st2{fill:none;stroke:#FFFFFF;stroke-width:2;stroke-linecap:round;stroke-linejoin:round;stroke-miterlimit:10;}
	.st3{fill:none;stroke:#3B3D51;stroke-width:2;stroke-linecap:round;stroke-linejoin:round;stroke-miterlimit:10;}
</style>
<path class="st0" d="M16,34H4c-1.1,0-2-0.9-2-2v-7c0-1.1,0.9-2,2-2h12c1.1,0,2,0.9,2,2v7C18,33.1,17.1,34,16,34z"/>
<line class="st0" x1="5" y1="37" x2="15" y2="37"/>
<path class="st1" d="M36,34H24c-1.1,0-2-0.9-2-2v-7c0-1.1,0.9-2,2-2h12c1.1,0,2,0.9,2,2v7C38,33.1,37.1,34,36,34z"/>
<line class="st1" x1="25" y1="37" x2="35" y2="37"/>
<path class="st0" d="M15,47c0-3.1-2.8-5.6-6.1-4.9c-2,0.4-3.5,2-3.8,4c-0.3,1.7,0.3,3.2,1.3,4.3C7.5,51.6,8,53.2,8,54.8V55h4v-0.2
	c0-1.7,0.7-3.3,1.8-4.6C14.6,49.4,15,48.2,15,47z"/>
<line class="st0" x1="8" y1="58" x2="12" y2="58"/>
<path class="st0" d="M8,47c0-1.1,0.9-2,2-2"/>
<path class="st1" d="M35,47c0-3.1-2.8-5.6-6.1-4.9c-2,0.4-3.5,2-3.8,4c-0.3,1.7,0.3,3.2,1.3,4.3c1.1,1.2,1.6,2.8,1.6,4.4V55h4v-0.2
	c0-1.7,0.7-3.3,1.8-4.6C34.6,49.4,35,48.2,35,47z"/>
<line class="st1" x1="28" y1="58" x2="32" y2="58"/>
<path class="st1" d="M28,47c0-1.1,0.9-2,2-2"/>
<path class="st2" d="M3.6,67.6C5.3,66,7.5,65,10,65s4.7,1,6.4,2.6"/>
<path class="st2" d="M6.5,70.5C7.4,69.6,8.6,69,10,69s2.6,0.6,3.5,1.5"/>
<circle class="st2" cx="10" cy="74" r="1"/>
<path class="st2" d="M23.6,67.6C25.3,66,27.5,65,30,65s4.7,1,6.4,2.6"/>
<path class="st2" d="M26.5,70.5c0.9-0.9,2.2-1.5,3.5-1.5c1.4,0,2.6,0.6,3.5,1.5"/>
<circle class="st2" cx="30" cy="74" r="1"/>
<line class="st2" x1="25" y1="75" x2="35" y2="63"/>
<line class="st3" x1="26" y1="76" x2="36" y2="64"/>
<line class="st0" x1="5" y1="85" x2="16" y2="96"/>
<line class="st0" x1="16" y1="85" x2="5" y2="96"/>
<line class="st1" x1="25" y1="85" x2="36" y2="96"/>
<line class="st1" x1="36" y1="85" x2="25" y2="96"/>
<line class="st0" x1="4" y1="110" x2="16" y2="110"/>
<line class="st1" x1="24" y1="110" x2="36" y2="110"/>
<line class="st0" x1="16" y1="10" x2="10" y2="10"/>
<polyline class="st0" points="14,7 17,10 14,13 "/>
<path class="st0" d="M15,3V2H6C4.9,2,4,2.9,4,4v12c0,1.1,0.9,2,2,2h9v-1"/>
<line class="st1" x1="36" y1="10" x2="30" y2="10"/>
<polyline class="st1" points="34,7 37,10 34,13 "/>
<path class="st1" d="M35,3V2h-9c-1.1,0-2,0.9-2,2v12c0,1.1,0.9,2,2,2h9v-1"/>
</svg>
