<?xml version="1.0" encoding="utf-8"?>
<!-- Generator: Adobe Illustrator 22.1.0, SVG Export Plug-In . SVG Version: 6.00 Build 0)  -->
<svg version="1.1" xmlns="http://www.w3.org/2000/svg" xmlns:xlink="http://www.w3.org/1999/xlink" x="0px" y="0px" width="128px"
	 height="36px" viewBox="0 0 128 36" style="enable-background:new 0 0 128 36;" xml:space="preserve">
<style type="text/css">
	.st0{fill:#5767FF;}
	.st1{fill:#FFFFFF;}
	.st2{fill:none;stroke:#FFFFFF;stroke-width:2;stroke-linecap:round;stroke-linejoin:round;stroke-miterlimit:10;}
</style>
<g id="Layer_1">
	<path class="st0" d="M124,36H4c-2.2,0-4-1.8-4-4V4c0-2.2,1.8-4,4-4h120c2.2,0,4,1.8,4,4v28C128,34.2,126.2,36,124,36z"/>
</g>
<g id="Layer_2">
	<g>
		<path class="st1" d="M45.2,14.2c0.7,0,1.3,0.1,1.9,0.3c0.6,0.2,1.1,0.4,1.5,0.8c0.4,0.4,0.7,0.8,0.9,1.3c0.2,0.5,0.3,1.1,0.3,1.8
			c0,0.8-0.1,1.5-0.4,2s-0.6,1-1.1,1.4c-0.5,0.4-1,0.7-1.6,0.8c-0.6,0.2-1.3,0.3-1.9,0.3H42v-8.8H45.2z M44.1,21.4h0.5
			c0.4,0,0.7,0,1.1-0.1s0.7-0.3,0.9-0.5c0.3-0.2,0.5-0.5,0.6-0.9s0.2-0.9,0.2-1.4c0-0.8-0.2-1.5-0.7-1.9s-1.1-0.7-1.9-0.7h-0.8V21.4
			z"/>
		<path class="st1" d="M55.3,14c0.6,0,1.2,0.1,1.8,0.3c0.5,0.2,1,0.5,1.4,0.9s0.7,0.9,0.9,1.4c0.2,0.6,0.3,1.2,0.3,1.9
			c0,0.7-0.1,1.3-0.3,1.9s-0.5,1-0.9,1.4c-0.4,0.4-0.9,0.7-1.4,0.9s-1.1,0.3-1.8,0.3S54,23,53.5,22.8c-0.5-0.2-1-0.5-1.4-0.9
			c-0.4-0.4-0.7-0.9-0.9-1.4c-0.2-0.6-0.3-1.2-0.3-1.9c0-0.7,0.1-1.3,0.3-1.9c0.2-0.6,0.5-1,0.9-1.4c0.4-0.4,0.9-0.7,1.4-0.9
			C54.1,14.1,54.7,14,55.3,14z M53.1,18.6c0,0.5,0.1,0.9,0.2,1.3c0.1,0.4,0.3,0.7,0.5,0.9c0.2,0.2,0.4,0.4,0.7,0.5
			c0.3,0.1,0.6,0.2,0.9,0.2c0.3,0,0.6-0.1,0.8-0.2c0.3-0.1,0.5-0.3,0.7-0.5c0.2-0.2,0.3-0.6,0.5-0.9s0.2-0.8,0.2-1.3
			c0-0.5-0.1-1-0.2-1.3c-0.1-0.4-0.3-0.7-0.5-0.9c-0.2-0.2-0.4-0.4-0.7-0.5c-0.3-0.1-0.6-0.2-0.9-0.2c-0.3,0-0.6,0.1-0.8,0.2
			s-0.5,0.3-0.7,0.6c-0.2,0.3-0.3,0.6-0.5,0.9C53.1,17.7,53.1,18.1,53.1,18.6z"/>
		<path class="st1" d="M62.5,14.2l0.8,3.7c0.1,0.5,0.2,1,0.3,1.5c0.1,0.5,0.1,1,0.2,1.5h0c0.1-0.5,0.2-1,0.3-1.5
			c0.1-0.5,0.2-1,0.3-1.4l0.8-3.7h2.3l0.9,3.7c0.1,0.5,0.2,1,0.3,1.4s0.2,1,0.2,1.5h0c0.1-0.5,0.1-1,0.2-1.5s0.2-1,0.3-1.4l0.8-3.7
			h2.1L70.2,23h-2.4L67,19.2c-0.1-0.5-0.2-1-0.3-1.4c-0.1-0.5-0.2-1-0.3-1.5h0c-0.1,0.5-0.2,1-0.3,1.5s-0.2,1-0.3,1.4L64.9,23h-2.3
			l-2.2-8.8H62.5z"/>
		<path class="st1" d="M73.4,14.2h2l1.9,3c0.3,0.5,0.7,1.1,1,1.6c0.3,0.6,0.6,1.1,0.7,1.5h0c0-0.6-0.1-1.1-0.1-1.7
			c0-0.6,0-1.1,0-1.7v-2.7h2V23h-2l-2-3c-0.3-0.5-0.6-1-0.9-1.5c-0.3-0.5-0.5-1.1-0.7-1.6h0c0,0.6,0.1,1.2,0.1,1.7
			c0,0.5,0,1.1,0,1.7V23h-2V14.2z"/>
		<path class="st1" d="M82.8,14.2H85v7.2h3.5V23h-5.6V14.2z"/>
		<path class="st1" d="M93.3,14c0.6,0,1.2,0.1,1.8,0.3s1,0.5,1.4,0.9c0.4,0.4,0.7,0.9,0.9,1.4c0.2,0.6,0.3,1.2,0.3,1.9
			c0,0.7-0.1,1.3-0.3,1.9c-0.2,0.6-0.5,1-0.9,1.4c-0.4,0.4-0.9,0.7-1.4,0.9s-1.1,0.3-1.8,0.3c-0.6,0-1.2-0.1-1.8-0.3s-1-0.5-1.4-0.9
			c-0.4-0.4-0.7-0.9-0.9-1.4c-0.2-0.6-0.3-1.2-0.3-1.9c0-0.7,0.1-1.3,0.3-1.9c0.2-0.6,0.5-1,0.9-1.4c0.4-0.4,0.9-0.7,1.4-0.9
			C92.1,14.1,92.7,14,93.3,14z M91.1,18.6c0,0.5,0.1,0.9,0.2,1.3c0.1,0.4,0.3,0.7,0.5,0.9s0.4,0.4,0.7,0.5c0.3,0.1,0.6,0.2,0.9,0.2
			c0.3,0,0.6-0.1,0.8-0.2c0.3-0.1,0.5-0.3,0.7-0.5s0.3-0.6,0.5-0.9s0.2-0.8,0.2-1.3c0-0.5-0.1-1-0.2-1.3c-0.1-0.4-0.3-0.7-0.5-0.9
			s-0.4-0.4-0.7-0.5c-0.3-0.1-0.6-0.2-0.9-0.2c-0.3,0-0.6,0.1-0.8,0.2c-0.3,0.1-0.5,0.3-0.7,0.6c-0.2,0.3-0.4,0.6-0.5,0.9
			C91.1,17.7,91.1,18.1,91.1,18.6z"/>
		<path class="st1" d="M101.4,14.2h2.3l3.2,8.8h-2.3l-0.6-1.9h-3l-0.6,1.9h-2.2L101.4,14.2z M101.5,19.6h2l-0.3-1.1
			c-0.1-0.3-0.2-0.7-0.3-1.1c-0.1-0.4-0.2-0.8-0.3-1.1h0c-0.1,0.3-0.2,0.7-0.3,1.1c-0.1,0.4-0.2,0.8-0.4,1.1L101.5,19.6z"/>
		<path class="st1" d="M111.2,14.2c0.7,0,1.3,0.1,1.9,0.3c0.6,0.2,1.1,0.4,1.5,0.8c0.4,0.4,0.7,0.8,0.9,1.3c0.2,0.5,0.3,1.1,0.3,1.8
			c0,0.8-0.1,1.5-0.4,2c-0.3,0.6-0.6,1-1.1,1.4c-0.5,0.4-1,0.7-1.6,0.8c-0.6,0.2-1.3,0.3-1.9,0.3H108v-8.8H111.2z M110.1,21.4h0.5
			c0.4,0,0.7,0,1.1-0.1c0.4-0.1,0.7-0.3,0.9-0.5c0.3-0.2,0.5-0.5,0.6-0.9c0.2-0.4,0.2-0.9,0.2-1.4c0-0.8-0.2-1.5-0.7-1.9
			c-0.5-0.4-1.1-0.7-1.9-0.7h-0.8V21.4z"/>
	</g>
</g>
<g id="Layer_3">
	<polyline class="st2" points="11,20.3 11,26 30.8,26 30.8,20.3 	"/>
	<line class="st2" x1="21" y1="10" x2="21" y2="20"/>
	<polyline class="st2" points="17,16 21,20 25,16 	"/>
</g>
</svg>
