<?xml version="1.0" encoding="utf-8"?>
<!-- Generator: Adobe Illustrator 22.1.0, SVG Export Plug-In . SVG Version: 6.00 Build 0)  -->
<svg version="1.1" xmlns="http://www.w3.org/2000/svg" xmlns:xlink="http://www.w3.org/1999/xlink" x="0px" y="0px" width="477px"
	 height="604px" viewBox="0 0 477 604" style="enable-background:new 0 0 477 604;" xml:space="preserve">
<style type="text/css">
	.st0{fill:none;stroke:#464850;stroke-width:2;stroke-linecap:round;stroke-linejoin:round;stroke-miterlimit:10;}
	.st1{fill:#5767FF;}
	.st2{fill:#FFFFFF;}
	.st3{fill:#FFFFFF;stroke:#464850;stroke-width:2;stroke-linecap:round;stroke-linejoin:round;stroke-miterlimit:10;}
	.st4{fill:#464850;}
	.st5{fill:#46474F;}
	.st6{fill:none;stroke:#5767FF;stroke-width:2;stroke-linecap:round;stroke-linejoin:round;}
	.st7{fill:none;stroke:#46474F;stroke-width:2;stroke-linecap:round;stroke-linejoin:round;stroke-miterlimit:10;}
	.st8{fill:#FFFFFF;stroke:#46474F;stroke-width:2;stroke-linecap:round;stroke-linejoin:round;stroke-miterlimit:10;}
</style>
<g id="Layer_1">
</g>
<g id="Layer_2">
	<path class="st0" d="M316,402H160c-1.1,0-2-0.9-2-2v-63c0-1.1,0.9-2,2-2h156c1.1,0,2,0.9,2,2v63C318,401.1,317.1,402,316,402z"/>
	<g>
		<path class="st1" d="M262,261h-48c-3.3,0-6-2.7-6-6v-48c0-3.3,2.7-6,6-6h48c3.3,0,6,2.7,6,6v48C268,258.3,265.3,261,262,261z"/>
		<path class="st2" d="M245.5,218.5c-2.9,0-5.6,1.2-7.5,3.2c-1.9-1.9-4.6-3.2-7.5-3.2c-5.8,0-10.5,4.7-10.5,10.5v12.5
			c0,1.7,1.3,3,3,3s3-1.3,3-3V229c0-2.5,2-4.5,4.5-4.5s4.5,2,4.5,4.5v12.5c0,1.7,1.3,3,3,3s3-1.3,3-3V229c0-2.5,2-4.5,4.5-4.5
			s4.5,2,4.5,4.5v12.5c0,1.7,1.3,3,3,3s3-1.3,3-3V229C256,223.2,251.3,218.5,245.5,218.5z"/>
	</g>
	<g>
		<rect x="211" y="31" class="st3" width="12" height="6"/>
		<rect x="232" y="31" class="st3" width="12" height="6"/>
		<rect x="251.5" y="31" class="st3" width="12" height="6"/>
		<rect x="211" y="97" class="st3" width="12" height="6"/>
		<rect x="232" y="97" class="st3" width="12" height="6"/>
		<rect x="251.5" y="97" class="st3" width="12" height="6"/>
		<rect x="268" y="40" class="st3" width="6" height="12"/>
		<rect x="268" y="61" class="st3" width="6" height="12"/>
		<rect x="268" y="80.5" class="st3" width="6" height="12"/>
		<rect x="202" y="40" class="st3" width="6" height="12"/>
		<rect x="202" y="61" class="st3" width="6" height="12"/>
		<rect x="202" y="80.5" class="st3" width="6" height="12"/>
		<path class="st3" d="M264.1,97h-52.2c-2.1,0-3.9-1.7-3.9-3.9V40.9c0-2.1,1.8-3.9,3.9-3.9h52.2c2.1,0,3.9,1.8,3.9,3.9v52.2
			C268,95.3,266.2,97,264.1,97z"/>
		<rect x="213" y="42" class="st3" width="50" height="50"/>
		<polyline class="st3" points="218.2,76 218.2,47.2 234.7,47.2 		"/>
		<line class="st0" x1="241.3" y1="47.2" x2="244.7" y2="47.2"/>
		<polyline class="st3" points="246.3,86.8 257.8,86.8 257.8,79.8 		"/>
	</g>
	<g>
		<path class="st4" d="M222.3,115.7h3.2l4.5,12.6h-3.2l-0.9-2.7h-4.2l-0.9,2.7h-3.2L222.3,115.7z M222.5,123.4h2.9l-0.5-1.5
			c-0.2-0.5-0.3-1-0.5-1.6c-0.2-0.6-0.3-1.1-0.4-1.5h0c-0.1,0.5-0.3,1-0.5,1.5c-0.2,0.5-0.3,1.1-0.5,1.6L222.5,123.4z"/>
		<path class="st4" d="M236.1,115.5c0.9,0,1.6,0.1,2.3,0.3c0.6,0.2,1.2,0.4,1.7,0.6l-0.7,2.2c-0.5-0.3-1-0.5-1.6-0.6
			c-0.5-0.2-1-0.2-1.5-0.2c-0.6,0-1.1,0.1-1.4,0.3c-0.3,0.2-0.5,0.5-0.5,0.9c0,0.4,0.2,0.7,0.5,0.9c0.3,0.2,0.8,0.4,1.4,0.6l1.2,0.4
			c0.5,0.2,0.9,0.4,1.3,0.6c0.4,0.2,0.7,0.5,1,0.8s0.5,0.7,0.7,1s0.2,0.8,0.2,1.3c0,0.5-0.1,1-0.3,1.5c-0.2,0.5-0.5,0.9-0.9,1.3
			s-0.9,0.6-1.5,0.9c-0.6,0.2-1.4,0.3-2.2,0.3c-0.8,0-1.5-0.1-2.3-0.3c-0.7-0.2-1.4-0.4-2-0.7l0.7-2.2c0.6,0.3,1.1,0.5,1.7,0.7
			c0.5,0.2,1.1,0.2,1.7,0.2c0.7,0,1.2-0.1,1.5-0.4c0.3-0.2,0.5-0.5,0.5-0.9c0-0.1,0-0.3-0.1-0.4s-0.2-0.3-0.3-0.4
			c-0.2-0.1-0.4-0.3-0.6-0.4c-0.3-0.1-0.6-0.3-1-0.4l-1-0.3c-0.5-0.2-0.9-0.4-1.3-0.6c-0.4-0.2-0.7-0.5-1-0.8
			c-0.3-0.3-0.5-0.6-0.7-1c-0.2-0.4-0.2-0.8-0.2-1.4c0-0.5,0.1-1.1,0.3-1.5c0.2-0.5,0.5-0.9,0.9-1.2s0.9-0.6,1.5-0.8
			S235.3,115.5,236.1,115.5z"/>
		<path class="st4" d="M245.8,115.7v12.6h-3v-12.6H245.8z"/>
		<path class="st4" d="M254.9,126.2c0.6,0,1.1-0.1,1.5-0.2c0.4-0.1,0.8-0.2,1-0.4l0.6,2.2c-0.3,0.2-0.7,0.3-1.3,0.5
			c-0.6,0.2-1.3,0.2-2.2,0.2c-1,0-1.9-0.2-2.7-0.5c-0.8-0.3-1.5-0.7-2.1-1.3s-1-1.3-1.4-2.1c-0.3-0.8-0.5-1.7-0.5-2.7
			c0-1,0.2-1.9,0.5-2.7c0.3-0.8,0.8-1.5,1.3-2.1s1.3-1,2.1-1.3c0.8-0.3,1.8-0.5,2.8-0.5c0.9,0,1.6,0.1,2.2,0.3
			c0.6,0.2,1,0.3,1.3,0.5l-0.7,2.2c-0.3-0.2-0.7-0.3-1.1-0.5c-0.4-0.1-0.9-0.2-1.4-0.2c-0.5,0-1,0.1-1.5,0.2s-0.9,0.4-1.2,0.7
			c-0.3,0.3-0.6,0.8-0.8,1.3c-0.2,0.5-0.3,1.2-0.3,1.9c0,0.7,0.1,1.3,0.3,1.9s0.5,1,0.8,1.3c0.3,0.4,0.8,0.6,1.2,0.8
			C253.8,126.1,254.3,126.2,254.9,126.2z"/>
	</g>
	<line class="st0" x1="217" y1="190" x2="217" y2="141"/>
	<polyline class="st0" points="213,143 217,139 221,143 	"/>
	<line class="st0" x1="259" y1="139" x2="259" y2="188"/>
	<polyline class="st0" points="263,186 259,190 255,186 	"/>
	<rect x="165" y="153" class="st3" width="64" height="23"/>
	<g>
		<path class="st5" d="M178.3,160.2v1.5h-2.5v7.3h-1.9v-7.3h-2.4v-1.5H178.3z"/>
		<path class="st5" d="M183.7,167.7c0.4,0,0.8,0,1.1-0.1c0.3-0.1,0.6-0.2,0.8-0.3l0.4,1.4c-0.2,0.1-0.5,0.2-1,0.4s-0.9,0.2-1.5,0.2
			c-0.7,0-1.3-0.1-1.8-0.3s-1-0.5-1.4-0.9c-0.4-0.4-0.7-0.9-0.9-1.4c-0.2-0.6-0.3-1.2-0.3-1.9c0-0.7,0.1-1.3,0.3-1.9
			c0.2-0.6,0.5-1,0.9-1.4c0.4-0.4,0.9-0.7,1.4-0.9c0.6-0.2,1.2-0.3,1.9-0.3c0.6,0,1.1,0.1,1.5,0.2c0.4,0.1,0.7,0.2,0.9,0.4l-0.4,1.4
			c-0.2-0.1-0.5-0.2-0.8-0.3s-0.6-0.1-1-0.1c-0.4,0-0.7,0.1-1.1,0.2c-0.3,0.1-0.6,0.3-0.9,0.5c-0.3,0.2-0.5,0.6-0.6,1
			c-0.1,0.4-0.2,0.9-0.2,1.4c0,0.5,0.1,1,0.2,1.4c0.1,0.4,0.3,0.7,0.6,1c0.2,0.3,0.5,0.4,0.9,0.6C183,167.6,183.3,167.7,183.7,167.7
			z"/>
		<path class="st5" d="M187.4,160.2h3.1c0.5,0,1,0.1,1.4,0.2c0.4,0.1,0.8,0.3,1.1,0.5s0.5,0.5,0.7,0.8c0.2,0.3,0.2,0.7,0.2,1.1
			c0,0.5-0.1,0.9-0.3,1.3c-0.2,0.4-0.4,0.7-0.8,0.9c-0.3,0.2-0.7,0.4-1.1,0.5c-0.4,0.1-0.9,0.2-1.4,0.2h-1v3.2h-1.9V160.2z
			 M189.3,164.3h0.8c0.2,0,0.5,0,0.7-0.1s0.4-0.1,0.6-0.2c0.2-0.1,0.3-0.2,0.4-0.4s0.1-0.4,0.1-0.7c0-0.5-0.2-0.8-0.5-1
			s-0.7-0.3-1.2-0.3h-0.9V164.3z"/>
		<path class="st5" d="M194.2,170.5l3.6-11.4h1.3l-3.6,11.4H194.2z"/>
		<path class="st5" d="M202.9,160c0.6,0,1.1,0.1,1.5,0.2c0.4,0.1,0.8,0.3,1.2,0.4l-0.4,1.4c-0.4-0.2-0.8-0.3-1.1-0.4
			c-0.4-0.1-0.7-0.1-1-0.1c-0.4,0-0.8,0.1-1,0.3c-0.2,0.2-0.4,0.4-0.4,0.7c0,0.3,0.1,0.5,0.3,0.7s0.6,0.3,1,0.5l0.8,0.3
			c0.7,0.2,1.2,0.6,1.6,1c0.4,0.4,0.6,1,0.6,1.6c0,0.4-0.1,0.7-0.2,1.1s-0.4,0.6-0.6,0.9c-0.3,0.2-0.6,0.4-1.1,0.6
			c-0.4,0.1-0.9,0.2-1.5,0.2c-1.1,0-2-0.2-2.9-0.6l0.4-1.4c0.4,0.2,0.8,0.3,1.2,0.5c0.4,0.1,0.8,0.2,1.2,0.2c0.5,0,0.9-0.1,1.1-0.3
			c0.3-0.2,0.4-0.4,0.4-0.8c0-0.1,0-0.2-0.1-0.3s-0.1-0.2-0.2-0.3c-0.1-0.1-0.3-0.2-0.5-0.3c-0.2-0.1-0.4-0.2-0.7-0.3l-0.7-0.3
			c-0.3-0.1-0.6-0.2-0.9-0.4c-0.3-0.1-0.5-0.3-0.7-0.5c-0.2-0.2-0.3-0.4-0.4-0.7c-0.1-0.3-0.2-0.6-0.2-0.9c0-0.4,0.1-0.7,0.2-1.1
			c0.1-0.3,0.3-0.6,0.6-0.8c0.3-0.2,0.6-0.4,1-0.5C201.9,160.1,202.4,160,202.9,160z"/>
		<path class="st5" d="M210.2,160c0.6,0,1.1,0.1,1.5,0.2c0.4,0.1,0.8,0.3,1.2,0.4l-0.4,1.4c-0.4-0.2-0.8-0.3-1.1-0.4
			c-0.4-0.1-0.7-0.1-1-0.1c-0.4,0-0.8,0.1-1,0.3c-0.2,0.2-0.4,0.4-0.4,0.7c0,0.3,0.1,0.5,0.3,0.7s0.6,0.3,1,0.5l0.8,0.3
			c0.7,0.2,1.2,0.6,1.6,1c0.4,0.4,0.6,1,0.6,1.6c0,0.4-0.1,0.7-0.2,1.1s-0.4,0.6-0.6,0.9c-0.3,0.2-0.6,0.4-1.1,0.6
			c-0.4,0.1-0.9,0.2-1.5,0.2c-1.1,0-2-0.2-2.9-0.6l0.4-1.4c0.4,0.2,0.8,0.3,1.2,0.5c0.4,0.1,0.8,0.2,1.2,0.2c0.5,0,0.9-0.1,1.1-0.3
			c0.3-0.2,0.4-0.4,0.4-0.8c0-0.1,0-0.2-0.1-0.3s-0.1-0.2-0.2-0.3c-0.1-0.1-0.3-0.2-0.5-0.3c-0.2-0.1-0.4-0.2-0.7-0.3l-0.7-0.3
			c-0.3-0.1-0.6-0.2-0.9-0.4c-0.3-0.1-0.5-0.3-0.7-0.5c-0.2-0.2-0.3-0.4-0.4-0.7c-0.1-0.3-0.2-0.6-0.2-0.9c0-0.4,0.1-0.7,0.2-1.1
			c0.1-0.3,0.3-0.6,0.6-0.8c0.3-0.2,0.6-0.4,1-0.5C209.2,160.1,209.7,160,210.2,160z"/>
		<path class="st5" d="M214.9,169v-8.8h1.9v3.5h3.3v-3.5h1.9v8.8h-1.9v-3.8h-3.3v3.8H214.9z"/>
	</g>
	<rect x="247" y="153" class="st3" width="46" height="23"/>
	<g>
		<path class="st5" d="M257.9,160.2v7.2c0,0.4,0,0.7,0,1c0,0.3-0.1,0.6-0.1,0.8s-0.1,0.5-0.2,0.7c-0.1,0.2-0.2,0.4-0.4,0.6
			c-0.3,0.4-0.7,0.6-1.2,0.8c-0.5,0.1-1,0.2-1.5,0.2v-1.5c0.2,0,0.5,0,0.6-0.1s0.3-0.2,0.4-0.3c0.2-0.1,0.3-0.3,0.3-0.6
			c0.1-0.2,0.1-0.5,0.1-0.8v-7.9H257.9z"/>
		<path class="st5" d="M262.7,160c0.6,0,1.1,0.1,1.5,0.2c0.4,0.1,0.8,0.3,1.2,0.4l-0.4,1.4c-0.4-0.2-0.8-0.3-1.1-0.4
			c-0.4-0.1-0.7-0.1-1-0.1c-0.4,0-0.8,0.1-1,0.3c-0.2,0.2-0.4,0.4-0.4,0.7c0,0.3,0.1,0.5,0.3,0.7s0.6,0.3,1,0.5l0.8,0.3
			c0.7,0.2,1.2,0.6,1.6,1c0.4,0.4,0.6,1,0.6,1.6c0,0.4-0.1,0.7-0.2,1.1s-0.4,0.6-0.6,0.9c-0.3,0.2-0.6,0.4-1.1,0.6
			c-0.4,0.1-0.9,0.2-1.5,0.2c-1.1,0-2-0.2-2.9-0.6l0.4-1.4c0.4,0.2,0.8,0.3,1.2,0.5c0.4,0.1,0.8,0.2,1.2,0.2c0.5,0,0.9-0.1,1.1-0.3
			c0.3-0.2,0.4-0.4,0.4-0.8c0-0.1,0-0.2-0.1-0.3s-0.1-0.2-0.2-0.3c-0.1-0.1-0.3-0.2-0.5-0.3c-0.2-0.1-0.4-0.2-0.7-0.3l-0.7-0.3
			c-0.3-0.1-0.6-0.2-0.9-0.4c-0.3-0.1-0.5-0.3-0.7-0.5c-0.2-0.2-0.3-0.4-0.4-0.7c-0.1-0.3-0.2-0.6-0.2-0.9c0-0.4,0.1-0.7,0.2-1.1
			c0.1-0.3,0.3-0.6,0.6-0.8c0.3-0.2,0.6-0.4,1-0.5C261.7,160.1,262.1,160,262.7,160z"/>
		<path class="st5" d="M271.3,160c0.6,0,1.2,0.1,1.7,0.3c0.5,0.2,1,0.5,1.4,0.9s0.7,0.9,0.9,1.4s0.3,1.2,0.3,1.9
			c0,0.7-0.1,1.3-0.3,1.9c-0.2,0.6-0.5,1-0.9,1.4s-0.9,0.7-1.4,0.9c-0.5,0.2-1.1,0.3-1.7,0.3s-1.2-0.1-1.7-0.3
			c-0.5-0.2-1-0.5-1.4-0.9s-0.7-0.9-0.9-1.4c-0.2-0.6-0.3-1.2-0.3-1.9c0-0.7,0.1-1.3,0.3-1.9c0.2-0.6,0.5-1,0.9-1.4
			c0.4-0.4,0.9-0.7,1.4-0.9S270.7,160,271.3,160z M268.9,164.6c0,0.5,0.1,1,0.2,1.4s0.3,0.7,0.5,1c0.2,0.3,0.5,0.4,0.7,0.6
			s0.6,0.2,0.9,0.2c0.3,0,0.6-0.1,0.9-0.2s0.5-0.3,0.7-0.6c0.2-0.3,0.4-0.6,0.5-1c0.1-0.4,0.2-0.8,0.2-1.4c0-0.5-0.1-1-0.2-1.4
			s-0.3-0.7-0.5-1c-0.2-0.3-0.5-0.4-0.7-0.6c-0.3-0.1-0.6-0.2-0.9-0.2s-0.6,0.1-0.9,0.2c-0.3,0.1-0.5,0.3-0.7,0.6
			c-0.2,0.3-0.4,0.6-0.5,1C269,163.6,268.9,164.1,268.9,164.6z"/>
		<path class="st5" d="M277.2,160.2h1.8l3,4.6c0.2,0.3,0.4,0.6,0.6,0.9c0.2,0.3,0.3,0.5,0.4,0.7h0c-0.1-0.6-0.1-1.2-0.1-1.8
			s0-1.2,0-1.8v-2.6h1.8v8.8h-1.8l-2.8-4.3c-0.1-0.2-0.2-0.4-0.4-0.6c-0.1-0.2-0.2-0.4-0.3-0.6c-0.1-0.2-0.2-0.4-0.3-0.5
			c-0.1-0.2-0.1-0.3-0.2-0.4h0c0,0.6,0.1,1.3,0.1,1.9c0,0.6,0,1.2,0,1.8v2.7h-1.8V160.2z"/>
	</g>
	<g>
		<path class="st5" d="M202,352.6c-1.5,0-2.8,0.7-3.6,1.7c-0.8-1-2.1-1.7-3.6-1.7c-2.5,0-4.5,1.9-4.5,4.3v5.6c0,0.5,0.4,0.9,0.9,0.9
			s0.9-0.4,0.9-0.9v-5.6c0-1.4,1.2-2.5,2.7-2.5s2.7,1.1,2.7,2.5v5.6c0,0.5,0.4,0.9,0.9,0.9s0.9-0.4,0.9-0.9v-5.6
			c0-1.4,1.2-2.5,2.7-2.5s2.7,1.1,2.7,2.5v5.6c0,0.5,0.4,0.9,0.9,0.9s0.9-0.4,0.9-0.9v-5.6C206.5,354.5,204.5,352.6,202,352.6z"/>
		<path class="st5" d="M241.6,352.6c-2.5,0-4.5,2.1-4.5,4.6v5.3c0,0.5,0.4,0.9,0.9,0.9s0.9-0.4,0.9-0.9v-5.3c0-1.5,1.2-2.8,2.7-2.8
			s2.7,1.3,2.7,2.8c0,0.5,0.4,0.9,0.9,0.9s0.9-0.4,0.9-0.9C246.1,354.7,244.1,352.6,241.6,352.6z"/>
		<path class="st5" d="M210.1,352.6c-0.5,0-0.9,0.4-0.9,0.9v9c0,0.5,0.4,0.9,0.9,0.9s0.9-0.4,0.9-0.9v-9
			C211,353,210.6,352.6,210.1,352.6z"/>
		<path class="st5" d="M264.1,361.6h-1.7c-1.5,0-2.8-1.3-2.8-2.9v-4.3h2.7c0.5,0,0.9-0.4,0.9-0.9s-0.4-0.9-0.9-0.9h-2.7v-2.7
			c0-0.5-0.4-0.9-0.9-0.9s-0.9,0.4-0.9,0.9v8.8c0,2.6,2,4.7,4.6,4.7h1.7c0.5,0,0.9-0.4,0.9-0.9S264.6,361.6,264.1,361.6z"/>
		<path class="st5" d="M274.9,352.6c-0.5,0-0.9,0.4-0.9,0.9v0.5c-1-0.9-2.2-1.4-3.6-1.4c-3,0-5.4,2.4-5.4,5.4c0,3,2.4,5.4,5.4,5.4
			c1.4,0,2.6-0.5,3.6-1.4v0.5c0,0.5,0.4,0.9,0.9,0.9s0.9-0.4,0.9-0.9v-9C275.8,353,275.4,352.6,274.9,352.6z M270.4,361.6
			c-2,0-3.6-1.6-3.6-3.6s1.6-3.6,3.6-3.6c2,0,3.6,1.6,3.6,3.6S272.4,361.6,270.4,361.6z"/>
		<path class="st5" d="M250.6,354.7c0.4-0.2,0.9-0.3,1.4-0.3c1.2,0,2,0.3,2.4,0.9c0.3,0.4,0.8,0.5,1.2,0.2c0.4-0.3,0.5-0.8,0.2-1.2
			c-0.8-1.1-2.1-1.7-3.9-1.7c-0.8,0-1.5,0.2-2.2,0.5c-1.1,0.6-1.7,1.6-1.6,2.8c0.1,1.2,0.9,2.2,2.1,2.5l2.8,0.9
			c0.6,0.2,0.8,0.6,0.9,1c0,0.2,0,0.7-0.6,1c-0.4,0.2-0.9,0.4-1.4,0.4c-1.2,0-2-0.3-2.4-0.9c-0.3-0.4-0.8-0.5-1.2-0.2
			c-0.4,0.3-0.5,0.8-0.2,1.2c0.8,1.1,2.1,1.7,3.9,1.7c0.8,0,1.6-0.2,2.3-0.6c1-0.6,1.6-1.6,1.5-2.8c-0.1-1.2-0.9-2.2-2.1-2.5
			l-2.8-0.9c-0.5-0.2-0.8-0.5-0.9-1C249.9,355.5,249.9,355,250.6,354.7z"/>
		<path class="st5" d="M235.3,357.5C235.3,357.5,235.3,357.5,235.3,357.5c-0.3-2.8-2.6-4.9-5.4-4.9c-3,0-5.4,2.4-5.4,5.4
			c0,3,2.4,5.4,5.4,5.4c1.5,0,3-0.7,4-1.8c0.3-0.4,0.3-0.9-0.1-1.3s-0.9-0.3-1.3,0.1c-0.7,0.8-1.7,1.2-2.7,1.2
			c-1.7,0-3.1-1.1-3.5-2.7h8c0.5,0,0.9-0.4,0.9-0.9C235.3,357.8,235.3,357.7,235.3,357.5L235.3,357.5z M226.4,357.1
			c0.4-1.6,1.8-2.7,3.5-2.7c1.7,0,3.1,1.1,3.5,2.7H226.4z"/>
		<path class="st5" d="M210.1,349c-0.5,0-0.9,0.4-0.9,0.9v0c0,0.5,0.4,0.9,0.9,0.9s0.9-0.4,0.9-0.9v0C211,349.4,210.6,349,210.1,349
			z"/>
		<path class="st5" d="M218.2,352.6c-2.5,0-4.5,2.1-4.5,4.6v5.3c0,0.5,0.4,0.9,0.9,0.9s0.9-0.4,0.9-0.9v-5.3c0-1.5,1.2-2.8,2.7-2.8
			s2.7,1.3,2.7,2.8v5.3c0,0.5,0.4,0.9,0.9,0.9s0.9-0.4,0.9-0.9v-5.3C222.7,354.7,220.7,352.6,218.2,352.6z"/>
		<path class="st5" d="M284.8,361.6h-1.7c-1.5,0-2.8-1.3-2.8-2.9v-4.3h2.7c0.5,0,0.9-0.4,0.9-0.9s-0.4-0.9-0.9-0.9h-2.7v-2.7
			c0-0.5-0.4-0.9-0.9-0.9s-0.9,0.4-0.9,0.9v8.8c0,2.6,2,4.7,4.6,4.7h1.7c0.5,0,0.9-0.4,0.9-0.9S285.3,361.6,284.8,361.6z"/>
	</g>
	<path class="st1" d="M254,393h-32c-1.1,0-2-0.9-2-2v-17c0-1.1,0.9-2,2-2h32c1.1,0,2,0.9,2,2v17C256,392.1,255.1,393,254,393z"/>
	<polyline class="st0" points="164,375 164,341 183.9,341 	"/>
	<line class="st0" x1="189" y1="341" x2="193" y2="341"/>
	<polyline class="st0" points="312,381 312,396 284,396 	"/>
	<line class="st0" x1="312" y1="377" x2="312" y2="372"/>
	<g>
		<path class="st2" d="M230.2,377.4h2.3l3.7,10.1h-2.3l-0.8-2.3h-3.6l-0.8,2.3h-2.3L230.2,377.4z M230,383.5h2.6l-0.5-1.3
			c-0.1-0.4-0.3-0.8-0.4-1.3c-0.1-0.4-0.3-0.8-0.4-1.3h0c-0.1,0.4-0.2,0.8-0.4,1.2c-0.1,0.4-0.3,0.9-0.4,1.3L230,383.5z"/>
		<path class="st2" d="M237.5,377.4h3.5c0.6,0,1.1,0.1,1.6,0.2c0.5,0.1,0.9,0.3,1.2,0.6s0.6,0.6,0.8,1c0.2,0.4,0.3,0.8,0.3,1.3
			c0,0.6-0.1,1.1-0.3,1.5c-0.2,0.4-0.5,0.8-0.9,1c-0.4,0.3-0.8,0.5-1.3,0.6c-0.5,0.1-1,0.2-1.6,0.2h-1.2v3.7h-2.2V377.4z
			 M239.7,382.1h0.9c0.3,0,0.5,0,0.8-0.1c0.3,0,0.5-0.1,0.7-0.3s0.3-0.3,0.4-0.5c0.1-0.2,0.2-0.4,0.2-0.7c0-0.5-0.2-0.9-0.5-1.2
			c-0.4-0.2-0.8-0.4-1.3-0.4h-1.1V382.1z"/>
		<path class="st2" d="M248.6,377.4v10.1h-2.2v-10.1H248.6z"/>
	</g>
	<line class="st0" x1="238" y1="272" x2="238" y2="321"/>
	<polyline class="st0" points="242,319 238,323 234,319 	"/>
	<rect x="215" y="286" class="st3" width="46" height="23"/>
	<g>
		<path class="st5" d="M223,293.2h3.1c0.5,0,1,0.1,1.4,0.2c0.4,0.1,0.8,0.3,1.1,0.5s0.5,0.5,0.7,0.8c0.2,0.3,0.2,0.7,0.2,1.1
			c0,0.5-0.1,0.9-0.3,1.3c-0.2,0.4-0.4,0.7-0.8,0.9c-0.3,0.2-0.7,0.4-1.1,0.5c-0.4,0.1-0.9,0.2-1.4,0.2h-1v3.2H223V293.2z
			 M224.9,297.3h0.8c0.2,0,0.5,0,0.7-0.1s0.4-0.1,0.6-0.2c0.2-0.1,0.3-0.2,0.4-0.4s0.1-0.4,0.1-0.7c0-0.5-0.2-0.8-0.5-1
			s-0.7-0.3-1.2-0.3h-0.9V297.3z"/>
		<path class="st5" d="M234.8,293c0.6,0,1.2,0.1,1.7,0.3c0.5,0.2,1,0.5,1.4,0.9s0.7,0.9,0.9,1.4s0.3,1.2,0.3,1.9
			c0,0.7-0.1,1.3-0.3,1.9c-0.2,0.6-0.5,1-0.9,1.4s-0.9,0.7-1.4,0.9c-0.5,0.2-1.1,0.3-1.7,0.3s-1.2-0.1-1.7-0.3
			c-0.5-0.2-1-0.5-1.4-0.9s-0.7-0.9-0.9-1.4c-0.2-0.6-0.3-1.2-0.3-1.9c0-0.7,0.1-1.3,0.3-1.9c0.2-0.6,0.5-1,0.9-1.4
			c0.4-0.4,0.9-0.7,1.4-0.9S234.2,293,234.8,293z M232.4,297.6c0,0.5,0.1,1,0.2,1.4s0.3,0.7,0.5,1c0.2,0.3,0.5,0.4,0.7,0.6
			s0.6,0.2,0.9,0.2c0.3,0,0.6-0.1,0.9-0.2s0.5-0.3,0.7-0.6c0.2-0.3,0.4-0.6,0.5-1c0.1-0.4,0.2-0.8,0.2-1.4c0-0.5-0.1-1-0.2-1.4
			s-0.3-0.7-0.5-1c-0.2-0.3-0.5-0.4-0.7-0.6c-0.3-0.1-0.6-0.2-0.9-0.2s-0.6,0.1-0.9,0.2c-0.3,0.1-0.5,0.3-0.7,0.6
			c-0.2,0.3-0.4,0.6-0.5,1C232.5,296.6,232.4,297.1,232.4,297.6z"/>
		<path class="st5" d="M243.5,293c0.6,0,1.1,0.1,1.5,0.2c0.4,0.1,0.8,0.3,1.2,0.4l-0.4,1.4c-0.4-0.2-0.8-0.3-1.1-0.4
			c-0.4-0.1-0.7-0.1-1-0.1c-0.4,0-0.8,0.1-1,0.3c-0.2,0.2-0.4,0.4-0.4,0.7c0,0.3,0.1,0.5,0.3,0.7s0.6,0.3,1,0.5l0.8,0.3
			c0.7,0.2,1.2,0.6,1.6,1c0.4,0.4,0.6,1,0.6,1.6c0,0.4-0.1,0.7-0.2,1.1s-0.4,0.6-0.6,0.9c-0.3,0.2-0.6,0.4-1.1,0.6
			c-0.4,0.1-0.9,0.2-1.5,0.2c-1.1,0-2-0.2-2.9-0.6l0.4-1.4c0.4,0.2,0.8,0.3,1.2,0.5c0.4,0.1,0.8,0.2,1.2,0.2c0.5,0,0.9-0.1,1.1-0.3
			c0.3-0.2,0.4-0.4,0.4-0.8c0-0.1,0-0.2-0.1-0.3s-0.1-0.2-0.2-0.3c-0.1-0.1-0.3-0.2-0.5-0.3c-0.2-0.1-0.4-0.2-0.7-0.3l-0.7-0.3
			c-0.3-0.1-0.6-0.2-0.9-0.4c-0.3-0.1-0.5-0.3-0.7-0.5c-0.2-0.2-0.3-0.4-0.4-0.7c-0.1-0.3-0.2-0.6-0.2-0.9c0-0.4,0.1-0.7,0.2-1.1
			c0.1-0.3,0.3-0.6,0.6-0.8c0.3-0.2,0.6-0.4,1-0.5C242.5,293.1,243,293,243.5,293z"/>
		<path class="st5" d="M254.2,293.2v1.5h-2.5v7.3h-1.9v-7.3h-2.4v-1.5H254.2z"/>
	</g>
	<g>
		<path class="st4" d="M210.6,558.5h2.2l4.3,11.3h-2.3l-1-2.8h-4.2l-1,2.8h-2.3L210.6,558.5z M210,565.4h3.1l-0.6-1.7
			c-0.2-0.5-0.3-1-0.5-1.4c-0.2-0.4-0.3-0.9-0.5-1.5h0c-0.2,0.5-0.3,1-0.5,1.4c-0.2,0.5-0.3,0.9-0.5,1.4L210,565.4z"/>
		<path class="st4" d="M218.4,569.8V557h2.1v12.8H218.4z"/>
		<path class="st4" d="M230.3,566h-5.8v0.1c0,0.8,0.2,1.4,0.7,1.7c0.5,0.4,1.1,0.6,1.9,0.6c0.5,0,0.9,0,1.3-0.1
			c0.4-0.1,0.7-0.2,1.1-0.3l0.4,1.5c-0.3,0.2-0.8,0.3-1.2,0.4c-0.5,0.1-1,0.2-1.7,0.2s-1.2-0.1-1.8-0.3c-0.6-0.2-1-0.4-1.5-0.8
			c-0.4-0.4-0.8-0.8-1-1.4c-0.2-0.6-0.4-1.2-0.4-2c0-0.7,0.1-1.3,0.3-1.8c0.2-0.6,0.5-1,0.9-1.4s0.8-0.7,1.4-0.9
			c0.5-0.2,1.1-0.3,1.7-0.3c1.1,0,2,0.3,2.7,1c0.7,0.7,1,1.7,1,2.9V566z M228.2,564.5c0-0.3,0-0.5-0.1-0.7c-0.1-0.2-0.2-0.4-0.3-0.6
			c-0.1-0.2-0.3-0.3-0.5-0.4c-0.2-0.1-0.5-0.2-0.7-0.2c-0.5,0-1,0.2-1.3,0.5c-0.3,0.4-0.6,0.8-0.6,1.4L228.2,564.5z"/>
		<path class="st4" d="M232.1,569.8v-8.6h1.6l0.3,1.6c0.2-0.5,0.5-0.9,1-1.3c0.4-0.3,1-0.5,1.7-0.5c0.3,0,0.5,0,0.8,0.1
			c0.2,0.1,0.4,0.1,0.5,0.2l-0.4,1.7c-0.1-0.1-0.3-0.1-0.5-0.2c-0.2-0.1-0.4-0.1-0.7-0.1c-0.6,0-1.1,0.2-1.5,0.6
			c-0.4,0.4-0.6,1.1-0.6,2v4.3H232.1z"/>
		<path class="st4" d="M244.4,562.8h-2.4v4.3c0,0.4,0.1,0.7,0.3,0.8c0.2,0.1,0.5,0.2,0.8,0.2c0.2,0,0.5,0,0.8-0.1
			c0.3,0,0.5-0.1,0.7-0.2l0.3,1.5c-0.2,0.1-0.5,0.2-0.9,0.3c-0.4,0.1-0.8,0.1-1.3,0.1c-1,0-1.7-0.2-2.1-0.6c-0.4-0.4-0.6-1-0.6-1.8
			v-4.6h-1.3v-1.5h1.3v-2.7h2.1v2.7h2.4V562.8z"/>
		<path class="st4" d="M247.6,559.3c-0.4,0-0.7-0.1-0.9-0.3c-0.2-0.2-0.3-0.5-0.3-0.8c0-0.3,0.1-0.6,0.3-0.8
			c0.2-0.2,0.5-0.3,0.9-0.3c0.3,0,0.6,0.1,0.8,0.3c0.2,0.2,0.3,0.5,0.3,0.8s-0.1,0.6-0.3,0.8C248.2,559.2,247.9,559.3,247.6,559.3z
			 M246.5,569.8v-8.6h2.1v8.6H246.5z"/>
		<path class="st4" d="M253.2,569.8h-2.1v-8.6h1.7l0.3,1.1c0.4-0.4,0.8-0.7,1.3-1c0.5-0.2,1-0.3,1.6-0.3c0.9,0,1.6,0.3,2.1,0.8
			s0.8,1.2,0.8,2.2v5.8h-2.1v-5.5c0-0.5-0.1-0.8-0.4-1.1c-0.2-0.3-0.6-0.4-1.1-0.4c-0.3,0-0.7,0.1-1.1,0.3s-0.7,0.4-1,0.7V569.8z"/>
		<path class="st4" d="M260.9,564.2c0-0.5,0.1-0.9,0.3-1.3c0.2-0.4,0.4-0.7,0.8-1c0.3-0.3,0.7-0.5,1.1-0.6c0.4-0.1,0.9-0.2,1.4-0.2
			c0.2,0,0.4,0,0.6,0c0.2,0,0.4,0.1,0.6,0.1h3.7v1.4h-0.7l-1.2-0.2c0.2,0.2,0.3,0.5,0.4,0.8c0.1,0.3,0.2,0.6,0.2,0.9
			c0,0.5-0.1,0.9-0.3,1.2c-0.2,0.4-0.4,0.7-0.7,1c-0.3,0.3-0.7,0.5-1.1,0.6c-0.4,0.1-0.9,0.2-1.5,0.2c-0.3,0-0.6,0-0.9-0.1
			c-0.4,0.2-0.5,0.4-0.5,0.7c0,0.4,0.3,0.6,1,0.6h2c0.9,0,1.7,0.2,2.2,0.6c0.6,0.4,0.8,1,0.8,1.9c0,0.5-0.1,0.9-0.3,1.3
			c-0.2,0.4-0.5,0.7-0.9,1c-0.4,0.3-0.9,0.5-1.4,0.6c-0.6,0.2-1.2,0.2-1.9,0.2c-1.3,0-2.3-0.2-3-0.7c-0.7-0.5-1.1-1.1-1.1-2
			c0-0.4,0.1-0.8,0.4-1.1s0.6-0.5,1.1-0.7c-0.2-0.1-0.4-0.3-0.5-0.5c-0.1-0.2-0.2-0.5-0.2-0.8c0-0.4,0.1-0.7,0.4-1
			c0.2-0.3,0.5-0.5,0.9-0.7c-0.4-0.2-0.7-0.5-1.1-0.9C261,565.3,260.9,564.8,260.9,564.2z M263.1,570c-0.2,0.1-0.4,0.2-0.5,0.4
			c-0.1,0.2-0.2,0.4-0.2,0.7c0,0.4,0.2,0.7,0.5,1c0.4,0.2,0.9,0.4,1.7,0.4c0.4,0,0.8,0,1.1-0.1c0.3-0.1,0.6-0.2,0.8-0.3
			c0.2-0.1,0.3-0.3,0.4-0.5c0.1-0.2,0.1-0.3,0.1-0.5c0-0.4-0.1-0.6-0.4-0.8c-0.3-0.1-0.6-0.2-1.1-0.2H263.1z M266,564.2
			c0-0.5-0.1-0.9-0.4-1.2c-0.3-0.3-0.6-0.4-1.1-0.4c-0.4,0-0.8,0.1-1.1,0.4c-0.3,0.3-0.4,0.6-0.4,1.2c0,0.5,0.1,0.9,0.4,1.2
			c0.3,0.3,0.6,0.4,1.1,0.4c0.4,0,0.8-0.1,1.1-0.4S266,564.7,266,564.2z"/>
	</g>
	<line class="st0" x1="238" y1="414" x2="238" y2="463"/>
	<polyline class="st0" points="242,461 238,465 234,461 	"/>
	<g>
		<path class="st4" d="M22.6,558.5h2.2v6.8c0,1,0.2,1.8,0.6,2.3c0.4,0.5,1,0.7,1.9,0.7c0.9,0,1.5-0.3,1.9-0.8c0.4-0.5,0.6-1.2,0.6-2
			v-7h2.2v6.9c0,1.6-0.4,2.7-1.2,3.5s-1.9,1.2-3.4,1.2c-0.7,0-1.4-0.1-2-0.3c-0.6-0.2-1.1-0.5-1.5-0.9c-0.4-0.4-0.7-0.9-0.9-1.5
			c-0.2-0.6-0.3-1.3-0.3-2.1V558.5z"/>
		<path class="st4" d="M39.3,563.2c-0.7-0.3-1.4-0.5-2.1-0.5c-0.4,0-0.8,0.1-1,0.2s-0.4,0.4-0.4,0.6c0,0.2,0.1,0.4,0.3,0.6
			s0.6,0.3,1.2,0.5l0.5,0.2c0.8,0.2,1.3,0.5,1.7,0.9c0.4,0.4,0.6,0.9,0.6,1.6c0,0.8-0.3,1.5-0.9,2c-0.6,0.5-1.5,0.7-2.6,0.7
			c-1.2,0-2.1-0.2-2.9-0.6l0.5-1.6c0.3,0.2,0.7,0.3,1.1,0.4c0.4,0.1,0.8,0.2,1.2,0.2c1,0,1.5-0.3,1.5-1c0-0.3-0.1-0.5-0.4-0.6
			c-0.2-0.1-0.6-0.3-1.2-0.5l-0.6-0.2c-0.7-0.2-1.3-0.6-1.6-0.9c-0.4-0.4-0.5-0.9-0.5-1.5c0-0.4,0.1-0.7,0.2-1
			c0.2-0.3,0.4-0.6,0.7-0.8c0.3-0.2,0.6-0.4,1-0.5c0.4-0.1,0.8-0.2,1.3-0.2s1,0,1.4,0.1c0.5,0.1,0.9,0.2,1.3,0.4L39.3,563.2z"/>
		<path class="st4" d="M49.3,566h-5.8v0.1c0,0.8,0.2,1.4,0.7,1.7c0.5,0.4,1.1,0.6,1.9,0.6c0.5,0,0.9,0,1.3-0.1
			c0.4-0.1,0.7-0.2,1.1-0.3l0.4,1.5c-0.3,0.2-0.8,0.3-1.2,0.4c-0.5,0.1-1,0.2-1.7,0.2s-1.2-0.1-1.8-0.3c-0.6-0.2-1-0.4-1.5-0.8
			c-0.4-0.4-0.8-0.8-1-1.4c-0.2-0.6-0.4-1.2-0.4-2c0-0.7,0.1-1.3,0.3-1.8c0.2-0.6,0.5-1,0.9-1.4s0.8-0.7,1.4-0.9
			c0.5-0.2,1.1-0.3,1.7-0.3c1.1,0,2,0.3,2.7,1c0.7,0.7,1,1.7,1,2.9V566z M47.2,564.5c0-0.3,0-0.5-0.1-0.7c-0.1-0.2-0.2-0.4-0.3-0.6
			c-0.1-0.2-0.3-0.3-0.5-0.4c-0.2-0.1-0.5-0.2-0.7-0.2c-0.5,0-1,0.2-1.3,0.5c-0.3,0.4-0.6,0.8-0.6,1.4L47.2,564.5z"/>
		<path class="st4" d="M51.1,569.8v-8.6h1.6l0.3,1.6c0.2-0.5,0.5-0.9,1-1.3c0.4-0.3,1-0.5,1.7-0.5c0.3,0,0.5,0,0.8,0.1
			c0.2,0.1,0.4,0.1,0.5,0.2l-0.4,1.7c-0.1-0.1-0.3-0.1-0.5-0.2c-0.2-0.1-0.4-0.1-0.7-0.1c-0.6,0-1.1,0.2-1.5,0.6
			c-0.4,0.4-0.6,1.1-0.6,2v4.3H51.1z"/>
		<path class="st4" d="M63.4,559.3c-0.4,0-0.7-0.1-0.9-0.3c-0.2-0.2-0.3-0.5-0.3-0.8c0-0.3,0.1-0.6,0.3-0.8c0.2-0.2,0.5-0.3,0.9-0.3
			c0.3,0,0.6,0.1,0.8,0.3c0.2,0.2,0.3,0.5,0.3,0.8s-0.1,0.6-0.3,0.8C64,559.2,63.7,559.3,63.4,559.3z M62.3,569.8v-8.6h2.1v8.6H62.3
			z"/>
		<path class="st4" d="M69,569.8h-2.1v-8.6h1.7l0.3,1.1c0.4-0.4,0.8-0.7,1.3-1c0.5-0.2,1-0.3,1.6-0.3c0.9,0,1.6,0.3,2.1,0.8
			s0.8,1.2,0.8,2.2v5.8h-2.1v-5.5c0-0.5-0.1-0.8-0.4-1.1c-0.2-0.3-0.6-0.4-1.1-0.4c-0.3,0-0.7,0.1-1.1,0.3s-0.7,0.4-1,0.7V569.8z"/>
		<path class="st4" d="M81.7,562.8h-2.4v4.3c0,0.4,0.1,0.7,0.3,0.8c0.2,0.1,0.5,0.2,0.8,0.2c0.2,0,0.5,0,0.8-0.1
			c0.3,0,0.5-0.1,0.7-0.2l0.3,1.5c-0.2,0.1-0.5,0.2-0.9,0.3c-0.4,0.1-0.8,0.1-1.3,0.1c-1,0-1.7-0.2-2.1-0.6c-0.4-0.4-0.6-1-0.6-1.8
			v-4.6h-1.3v-1.5h1.3v-2.7h2.1v2.7h2.4V562.8z"/>
		<path class="st4" d="M91,566h-5.8v0.1c0,0.8,0.2,1.4,0.7,1.7c0.5,0.4,1.1,0.6,1.9,0.6c0.5,0,0.9,0,1.3-0.1
			c0.4-0.1,0.7-0.2,1.1-0.3l0.4,1.5c-0.3,0.2-0.8,0.3-1.2,0.4c-0.5,0.1-1,0.2-1.7,0.2s-1.2-0.1-1.8-0.3c-0.6-0.2-1-0.4-1.5-0.8
			c-0.4-0.4-0.8-0.8-1-1.4c-0.2-0.6-0.4-1.2-0.4-2c0-0.7,0.1-1.3,0.3-1.8c0.2-0.6,0.5-1,0.9-1.4s0.8-0.7,1.4-0.9
			c0.5-0.2,1.1-0.3,1.7-0.3c1.1,0,2,0.3,2.7,1c0.7,0.7,1,1.7,1,2.9V566z M88.9,564.5c0-0.3,0-0.5-0.1-0.7c-0.1-0.2-0.2-0.4-0.3-0.6
			c-0.1-0.2-0.3-0.3-0.5-0.4c-0.2-0.1-0.5-0.2-0.7-0.2c-0.5,0-1,0.2-1.3,0.5c-0.3,0.4-0.6,0.8-0.6,1.4L88.9,564.5z"/>
		<path class="st4" d="M92.8,569.8v-8.6h1.6l0.3,1.6c0.2-0.5,0.5-0.9,1-1.3c0.4-0.3,1-0.5,1.7-0.5c0.3,0,0.5,0,0.8,0.1
			c0.2,0.1,0.4,0.1,0.5,0.2l-0.4,1.7c-0.1-0.1-0.3-0.1-0.5-0.2c-0.2-0.1-0.4-0.1-0.7-0.1c-0.6,0-1.1,0.2-1.5,0.6
			c-0.4,0.4-0.6,1.1-0.6,2v4.3H92.8z"/>
		<path class="st4" d="M103.1,556.9c0.4,0,0.8,0.1,1.2,0.2c0.4,0.1,0.7,0.2,1.1,0.4l-0.4,1.4c-0.2-0.1-0.4-0.2-0.6-0.2
			c-0.2-0.1-0.4-0.1-0.7-0.1c-0.5,0-0.8,0.1-1,0.4c-0.2,0.3-0.3,0.7-0.3,1.4v0.9h2.3v1.5h-2.3v7h-2.1v-7h-1.3v-1.5h1.3v-1.4
			c0-0.9,0.3-1.7,0.8-2.2C101.5,557.2,102.2,556.9,103.1,556.9z"/>
		<path class="st4" d="M105.9,562c0.5-0.3,1.1-0.5,1.6-0.7c0.5-0.2,1.1-0.2,1.8-0.2c0.5,0,1,0.1,1.4,0.2c0.4,0.1,0.8,0.3,1.1,0.5
			c0.3,0.3,0.5,0.6,0.7,1s0.2,0.9,0.2,1.5v5.5H111l-0.2-0.9h-0.1c-0.6,0.7-1.5,1.1-2.6,1.1c-0.9,0-1.6-0.2-2.1-0.7s-0.8-1.1-0.8-1.8
			c0-0.5,0.1-0.9,0.3-1.2c0.2-0.3,0.5-0.6,0.8-0.9s0.8-0.4,1.3-0.5c0.5-0.1,1-0.2,1.6-0.2h1.3v-0.6c0-0.5-0.1-0.8-0.4-1
			c-0.3-0.2-0.6-0.3-1.1-0.3c-0.3,0-0.7,0.1-1.1,0.2s-0.8,0.3-1.3,0.6L105.9,562z M110.5,566l-1,0c-0.8,0-1.3,0.2-1.7,0.4
			s-0.5,0.5-0.5,0.9c0,0.4,0.1,0.7,0.4,0.9c0.3,0.2,0.6,0.2,0.9,0.2s0.7-0.1,1-0.3c0.3-0.2,0.6-0.4,0.8-0.7V566z"/>
		<path class="st4" d="M119.1,568.4c0.4,0,0.7,0,1-0.1s0.5-0.2,0.7-0.3l0.4,1.5c-0.3,0.1-0.6,0.3-1,0.4s-0.9,0.2-1.4,0.2
			c-0.6,0-1.2-0.1-1.8-0.3s-1-0.5-1.4-0.8c-0.4-0.4-0.7-0.8-1-1.4c-0.2-0.6-0.4-1.2-0.4-1.9c0-0.7,0.1-1.3,0.3-1.8
			c0.2-0.6,0.5-1,0.9-1.4c0.4-0.4,0.9-0.7,1.4-0.9s1.2-0.3,1.8-0.3c0.4,0,0.8,0,1.2,0.1s0.8,0.2,1.3,0.4l-0.4,1.5
			c-0.3-0.2-0.6-0.3-0.8-0.4s-0.6-0.1-0.9-0.1c-0.8,0-1.4,0.2-1.9,0.7c-0.5,0.5-0.7,1.2-0.7,2.1c0,0.5,0.1,1,0.2,1.4
			c0.2,0.4,0.4,0.7,0.6,0.9c0.3,0.2,0.5,0.4,0.9,0.5C118.5,568.4,118.8,568.4,119.1,568.4z"/>
		<path class="st4" d="M130,566h-5.8v0.1c0,0.8,0.2,1.4,0.7,1.7c0.5,0.4,1.1,0.6,1.9,0.6c0.5,0,0.9,0,1.3-0.1
			c0.4-0.1,0.7-0.2,1.1-0.3l0.4,1.5c-0.3,0.2-0.8,0.3-1.2,0.4c-0.5,0.1-1,0.2-1.7,0.2s-1.2-0.1-1.8-0.3c-0.6-0.2-1-0.4-1.5-0.8
			c-0.4-0.4-0.8-0.8-1-1.4c-0.2-0.6-0.4-1.2-0.4-2c0-0.7,0.1-1.3,0.3-1.8c0.2-0.6,0.5-1,0.9-1.4s0.8-0.7,1.4-0.9
			c0.5-0.2,1.1-0.3,1.7-0.3c1.1,0,2,0.3,2.7,1c0.7,0.7,1,1.7,1,2.9V566z M127.8,564.5c0-0.3,0-0.5-0.1-0.7c-0.1-0.2-0.2-0.4-0.3-0.6
			c-0.1-0.2-0.3-0.3-0.5-0.4c-0.2-0.1-0.5-0.2-0.7-0.2c-0.5,0-1,0.2-1.3,0.5c-0.3,0.4-0.6,0.8-0.6,1.4L127.8,564.5z"/>
	</g>
	<g>
		<path class="st4" d="M359.7,558.5l1.5,5.7c0,0.2,0.1,0.4,0.1,0.6c0.1,0.3,0.1,0.6,0.2,0.9c0.1,0.3,0.1,0.6,0.2,0.9
			c0.1,0.3,0.1,0.6,0.1,0.8h0c0-0.2,0.1-0.5,0.1-0.8c0.1-0.3,0.1-0.6,0.2-0.9c0.1-0.3,0.1-0.6,0.2-0.9c0.1-0.3,0.1-0.5,0.1-0.7
			l1.5-5.7h2.2l1.5,5.7c0,0.2,0.1,0.4,0.2,0.6c0.1,0.3,0.1,0.6,0.2,0.9c0.1,0.3,0.1,0.6,0.2,0.9c0.1,0.3,0.1,0.6,0.1,0.8h0
			c0-0.2,0.1-0.5,0.1-0.8c0.1-0.3,0.1-0.6,0.2-0.9c0.1-0.3,0.1-0.6,0.2-0.9c0.1-0.3,0.1-0.5,0.1-0.7l1.4-5.7h2.2l-3,11.3h-2.3
			l-1.6-6c-0.1-0.5-0.3-1-0.4-1.4s-0.2-1-0.3-1.5h0c-0.1,0.5-0.2,1-0.3,1.5s-0.2,0.9-0.3,1.4l-1.5,6h-2.3l-3.1-11.3H359.7z"/>
		<path class="st4" d="M373.8,562c0.5-0.3,1.1-0.5,1.6-0.7c0.5-0.2,1.1-0.2,1.8-0.2c0.5,0,1,0.1,1.4,0.2c0.4,0.1,0.8,0.3,1.1,0.5
			c0.3,0.3,0.5,0.6,0.7,1s0.2,0.9,0.2,1.5v5.5h-1.7l-0.2-0.9h-0.1c-0.6,0.7-1.5,1.1-2.6,1.1c-0.9,0-1.6-0.2-2.1-0.7
			s-0.8-1.1-0.8-1.8c0-0.5,0.1-0.9,0.3-1.2c0.2-0.3,0.5-0.6,0.8-0.9s0.8-0.4,1.3-0.5c0.5-0.1,1-0.2,1.6-0.2h1.3v-0.6
			c0-0.5-0.1-0.8-0.4-1c-0.3-0.2-0.6-0.3-1.1-0.3c-0.3,0-0.7,0.1-1.1,0.2s-0.8,0.3-1.3,0.6L373.8,562z M378.4,566l-1,0
			c-0.8,0-1.3,0.2-1.7,0.4s-0.5,0.5-0.5,0.9c0,0.4,0.1,0.7,0.4,0.9c0.3,0.2,0.6,0.2,0.9,0.2s0.7-0.1,1-0.3c0.3-0.2,0.6-0.4,0.8-0.7
			V566z"/>
		<path class="st4" d="M387.7,562.8h-2.4v4.3c0,0.4,0.1,0.7,0.3,0.8c0.2,0.1,0.5,0.2,0.8,0.2c0.2,0,0.5,0,0.8-0.1
			c0.3,0,0.5-0.1,0.7-0.2l0.3,1.5c-0.2,0.1-0.5,0.2-0.9,0.3c-0.4,0.1-0.8,0.1-1.3,0.1c-1,0-1.7-0.2-2.1-0.6c-0.4-0.4-0.6-1-0.6-1.8
			v-4.6H382v-1.5h1.3v-2.7h2.1v2.7h2.4V562.8z"/>
		<path class="st4" d="M393.9,568.4c0.4,0,0.7,0,1-0.1s0.5-0.2,0.7-0.3l0.4,1.5c-0.3,0.1-0.6,0.3-1,0.4s-0.9,0.2-1.4,0.2
			c-0.6,0-1.2-0.1-1.8-0.3s-1-0.5-1.4-0.8c-0.4-0.4-0.7-0.8-1-1.4c-0.2-0.6-0.4-1.2-0.4-1.9c0-0.7,0.1-1.3,0.3-1.8
			c0.2-0.6,0.5-1,0.9-1.4c0.4-0.4,0.9-0.7,1.4-0.9s1.2-0.3,1.8-0.3c0.4,0,0.8,0,1.2,0.1s0.8,0.2,1.3,0.4l-0.4,1.5
			c-0.3-0.2-0.6-0.3-0.8-0.4s-0.6-0.1-0.9-0.1c-0.8,0-1.4,0.2-1.9,0.7c-0.5,0.5-0.7,1.2-0.7,2.1c0,0.5,0.1,1,0.2,1.4
			c0.2,0.4,0.4,0.7,0.6,0.9c0.3,0.2,0.5,0.4,0.9,0.5C393.3,568.4,393.6,568.4,393.9,568.4z"/>
		<path class="st4" d="M399.9,569.8h-2.1V557h2.1v5.1c0.4-0.3,0.8-0.5,1.2-0.7c0.5-0.2,1-0.3,1.5-0.3c0.5,0,0.9,0.1,1.3,0.2
			c0.4,0.1,0.7,0.4,0.9,0.6c0.2,0.3,0.4,0.6,0.5,0.9s0.2,0.8,0.2,1.2v5.7h-2.1v-5.3c0-0.6-0.1-1.1-0.4-1.3c-0.2-0.3-0.6-0.4-1.1-0.4
			c-0.3,0-0.7,0.1-1.1,0.3s-0.7,0.4-1,0.7V569.8z"/>
		<path class="st4" d="M413.4,557h2.1v12.8H414l-0.2-0.9h-0.1c-0.3,0.3-0.6,0.6-1,0.8c-0.4,0.2-0.9,0.3-1.5,0.3
			c-0.5,0-1-0.1-1.4-0.3s-0.9-0.5-1.2-0.9c-0.3-0.4-0.6-0.8-0.8-1.4c-0.2-0.6-0.3-1.2-0.3-1.9c0-0.7,0.1-1.3,0.3-1.8
			c0.2-0.5,0.4-1,0.8-1.4c0.3-0.4,0.7-0.7,1.2-0.9c0.5-0.2,1-0.3,1.6-0.3c0.4,0,0.8,0.1,1.2,0.2s0.7,0.3,0.9,0.5V557z M413.4,563.5
			c-0.2-0.2-0.4-0.4-0.7-0.6c-0.3-0.1-0.6-0.2-0.9-0.2c-0.3,0-0.6,0.1-0.9,0.2c-0.3,0.1-0.5,0.3-0.7,0.5c-0.2,0.2-0.4,0.5-0.5,0.9
			c-0.1,0.4-0.2,0.8-0.2,1.3s0.1,0.9,0.2,1.3c0.1,0.4,0.3,0.7,0.5,0.9s0.4,0.4,0.7,0.5c0.3,0.1,0.5,0.2,0.8,0.2c0.4,0,0.7-0.1,1-0.3
			c0.3-0.2,0.5-0.4,0.7-0.7V563.5z"/>
		<path class="st4" d="M426,565.5c0,0.7-0.1,1.3-0.3,1.9c-0.2,0.6-0.5,1-0.9,1.4c-0.4,0.4-0.9,0.7-1.4,0.9c-0.5,0.2-1.1,0.3-1.7,0.3
			c-0.6,0-1.2-0.1-1.7-0.3c-0.5-0.2-1-0.5-1.4-0.8c-0.4-0.4-0.7-0.8-0.9-1.4c-0.2-0.5-0.3-1.2-0.3-1.9c0-0.7,0.1-1.4,0.3-1.9
			c0.2-0.6,0.5-1,0.9-1.4s0.9-0.7,1.4-0.9c0.5-0.2,1.1-0.3,1.7-0.3s1.2,0.1,1.7,0.3c0.5,0.2,1,0.5,1.4,0.8c0.4,0.4,0.7,0.8,0.9,1.4
			C425.9,564.1,426,564.8,426,565.5z M423.8,565.6c0-0.5-0.1-1-0.2-1.3s-0.3-0.7-0.5-0.9c-0.2-0.2-0.4-0.4-0.7-0.5
			c-0.3-0.1-0.5-0.2-0.8-0.2c-0.3,0-0.5,0-0.8,0.1c-0.3,0.1-0.5,0.2-0.7,0.5c-0.2,0.2-0.3,0.5-0.5,0.9c-0.1,0.4-0.2,0.8-0.2,1.4
			c0,0.5,0.1,0.9,0.2,1.3c0.1,0.4,0.3,0.6,0.5,0.9c0.2,0.2,0.4,0.4,0.7,0.5s0.5,0.2,0.8,0.2c0.3,0,0.5,0,0.8-0.1
			c0.3-0.1,0.5-0.3,0.7-0.5c0.2-0.2,0.3-0.5,0.5-0.9S423.8,566.1,423.8,565.6z"/>
		<path class="st4" d="M427.7,564.2c0-0.5,0.1-0.9,0.3-1.3c0.2-0.4,0.4-0.7,0.8-1s0.7-0.5,1.1-0.6c0.4-0.1,0.9-0.2,1.4-0.2
			c0.2,0,0.4,0,0.6,0c0.2,0,0.4,0.1,0.6,0.1h3.7v1.4h-0.7l-1.2-0.2c0.2,0.2,0.3,0.5,0.4,0.8s0.2,0.6,0.2,0.9c0,0.5-0.1,0.9-0.3,1.2
			c-0.2,0.4-0.4,0.7-0.7,1c-0.3,0.3-0.7,0.5-1.1,0.6c-0.4,0.1-0.9,0.2-1.5,0.2c-0.3,0-0.6,0-0.9-0.1c-0.4,0.2-0.5,0.4-0.5,0.7
			c0,0.4,0.3,0.6,1,0.6h2c0.9,0,1.7,0.2,2.2,0.6c0.6,0.4,0.8,1,0.8,1.9c0,0.5-0.1,0.9-0.3,1.3c-0.2,0.4-0.5,0.7-0.9,1
			c-0.4,0.3-0.9,0.5-1.4,0.6c-0.6,0.2-1.2,0.2-1.9,0.2c-1.3,0-2.3-0.2-3-0.7c-0.7-0.5-1.1-1.1-1.1-2c0-0.4,0.1-0.8,0.4-1.1
			s0.6-0.5,1.1-0.7c-0.2-0.1-0.4-0.3-0.5-0.5c-0.2-0.2-0.2-0.5-0.2-0.8c0-0.4,0.1-0.7,0.4-1c0.2-0.3,0.5-0.5,0.9-0.7
			c-0.4-0.2-0.7-0.5-1.1-0.9C427.8,565.3,427.7,564.8,427.7,564.2z M429.9,570c-0.2,0.1-0.4,0.2-0.5,0.4s-0.2,0.4-0.2,0.7
			c0,0.4,0.2,0.7,0.5,1c0.4,0.2,0.9,0.4,1.7,0.4c0.4,0,0.8,0,1.1-0.1c0.3-0.1,0.6-0.2,0.8-0.3c0.2-0.1,0.3-0.3,0.4-0.5
			c0.1-0.2,0.1-0.3,0.1-0.5c0-0.4-0.1-0.6-0.4-0.8c-0.3-0.1-0.6-0.2-1.1-0.2H429.9z M432.8,564.2c0-0.5-0.1-0.9-0.4-1.2
			c-0.3-0.3-0.6-0.4-1.1-0.4c-0.4,0-0.8,0.1-1.1,0.4c-0.3,0.3-0.4,0.6-0.4,1.2c0,0.5,0.1,0.9,0.4,1.2c0.3,0.3,0.6,0.4,1.1,0.4
			c0.4,0,0.8-0.1,1.1-0.4C432.6,565,432.8,564.7,432.8,564.2z"/>
	</g>
	<polyline class="st0" points="90.5,461 90.5,366 146,366 	"/>
	<polyline class="st0" points="94.5,459 90.5,463 86.5,459 	"/>
	<polyline class="st0" points="195.5,228 64.5,228 64.5,463 	"/>
	<polyline class="st0" points="193,232 197,228 193,224 	"/>
	<rect x="41" y="285" class="st3" width="47" height="23"/>
	<g>
		<path class="st5" d="M49,292.2h3.1c0.5,0,1,0.1,1.4,0.2c0.4,0.1,0.8,0.3,1.1,0.5s0.5,0.5,0.7,0.8c0.2,0.3,0.2,0.7,0.2,1.1
			c0,0.5-0.1,0.9-0.3,1.3c-0.2,0.4-0.4,0.7-0.8,0.9c-0.3,0.2-0.7,0.4-1.1,0.5c-0.4,0.1-0.9,0.2-1.4,0.2h-1v3.2H49V292.2z
			 M50.9,296.3h0.8c0.2,0,0.5,0,0.7-0.1s0.4-0.1,0.6-0.2c0.2-0.1,0.3-0.2,0.4-0.4s0.1-0.4,0.1-0.7c0-0.5-0.2-0.8-0.5-1
			s-0.7-0.3-1.2-0.3h-0.9V296.3z"/>
		<path class="st5" d="M60.8,292c0.6,0,1.2,0.1,1.7,0.3c0.5,0.2,1,0.5,1.4,0.9s0.7,0.9,0.9,1.4s0.3,1.2,0.3,1.9
			c0,0.7-0.1,1.3-0.3,1.9c-0.2,0.6-0.5,1-0.9,1.4s-0.9,0.7-1.4,0.9c-0.5,0.2-1.1,0.3-1.7,0.3s-1.2-0.1-1.7-0.3
			c-0.5-0.2-1-0.5-1.4-0.9s-0.7-0.9-0.9-1.4c-0.2-0.6-0.3-1.2-0.3-1.9c0-0.7,0.1-1.3,0.3-1.9c0.2-0.6,0.5-1,0.9-1.4
			c0.4-0.4,0.9-0.7,1.4-0.9S60.2,292,60.8,292z M58.4,296.6c0,0.5,0.1,1,0.2,1.4s0.3,0.7,0.5,1c0.2,0.3,0.5,0.4,0.7,0.6
			s0.6,0.2,0.9,0.2c0.3,0,0.6-0.1,0.9-0.2s0.5-0.3,0.7-0.6c0.2-0.3,0.4-0.6,0.5-1c0.1-0.4,0.2-0.8,0.2-1.4c0-0.5-0.1-1-0.2-1.4
			s-0.3-0.7-0.5-1c-0.2-0.3-0.5-0.4-0.7-0.6c-0.3-0.1-0.6-0.2-0.9-0.2s-0.6,0.1-0.9,0.2c-0.3,0.1-0.5,0.3-0.7,0.6
			c-0.2,0.3-0.4,0.6-0.5,1C58.5,295.6,58.4,296.1,58.4,296.6z"/>
		<path class="st5" d="M69.5,292c0.6,0,1.1,0.1,1.5,0.2c0.4,0.1,0.8,0.3,1.2,0.4l-0.4,1.4c-0.4-0.2-0.8-0.3-1.1-0.4
			c-0.4-0.1-0.7-0.1-1-0.1c-0.4,0-0.8,0.1-1,0.3c-0.2,0.2-0.4,0.4-0.4,0.7c0,0.3,0.1,0.5,0.3,0.7s0.6,0.3,1,0.5l0.8,0.3
			c0.7,0.2,1.2,0.6,1.6,1c0.4,0.4,0.6,1,0.6,1.6c0,0.4-0.1,0.7-0.2,1.1s-0.4,0.6-0.6,0.9c-0.3,0.2-0.6,0.4-1.1,0.6
			c-0.4,0.1-0.9,0.2-1.5,0.2c-1.1,0-2-0.2-2.9-0.6l0.4-1.4c0.4,0.2,0.8,0.3,1.2,0.5c0.4,0.1,0.8,0.2,1.2,0.2c0.5,0,0.9-0.1,1.1-0.3
			c0.3-0.2,0.4-0.4,0.4-0.8c0-0.1,0-0.2-0.1-0.3s-0.1-0.2-0.2-0.3c-0.1-0.1-0.3-0.2-0.5-0.3c-0.2-0.1-0.4-0.2-0.7-0.3l-0.7-0.3
			c-0.3-0.1-0.6-0.2-0.9-0.4c-0.3-0.1-0.5-0.3-0.7-0.5c-0.2-0.2-0.3-0.4-0.4-0.7c-0.1-0.3-0.2-0.6-0.2-0.9c0-0.4,0.1-0.7,0.2-1.1
			c0.1-0.3,0.3-0.6,0.6-0.8c0.3-0.2,0.6-0.4,1-0.5C68.5,292.1,69,292,69.5,292z"/>
		<path class="st5" d="M80.2,292.2v1.5h-2.5v7.3h-1.9v-7.3h-2.4v-1.5H80.2z"/>
	</g>
	<polyline class="st0" points="385.5,461 385.5,366 330,366 	"/>
	<polyline class="st0" points="381.5,459 385.5,463 389.5,459 	"/>
	<polyline class="st0" points="281.5,228 412.5,228 412.5,463 	"/>
	<polyline class="st0" points="283,232 279,228 283,224 	"/>
	<rect x="389" y="285" class="st3" width="47" height="23"/>
	<g>
		<path class="st5" d="M397,292.2h3.1c0.5,0,1,0.1,1.4,0.2c0.4,0.1,0.8,0.3,1.1,0.5c0.3,0.2,0.5,0.5,0.7,0.8
			c0.2,0.3,0.2,0.7,0.2,1.1c0,0.5-0.1,0.9-0.3,1.3c-0.2,0.4-0.4,0.7-0.8,0.9c-0.3,0.2-0.7,0.4-1.1,0.5c-0.4,0.1-0.9,0.2-1.4,0.2h-1
			v3.2H397V292.2z M398.9,296.3h0.8c0.2,0,0.5,0,0.7-0.1s0.4-0.1,0.6-0.2s0.3-0.2,0.4-0.4c0.1-0.2,0.1-0.4,0.1-0.7
			c0-0.5-0.2-0.8-0.5-1c-0.3-0.2-0.7-0.3-1.2-0.3h-0.9V296.3z"/>
		<path class="st5" d="M408.8,292c0.6,0,1.2,0.1,1.7,0.3c0.5,0.2,1,0.5,1.4,0.9s0.7,0.9,0.9,1.4s0.3,1.2,0.3,1.9
			c0,0.7-0.1,1.3-0.3,1.9c-0.2,0.6-0.5,1-0.9,1.4s-0.9,0.7-1.4,0.9c-0.5,0.2-1.1,0.3-1.7,0.3c-0.6,0-1.2-0.1-1.7-0.3s-1-0.5-1.4-0.9
			s-0.7-0.9-0.9-1.4c-0.2-0.6-0.3-1.2-0.3-1.9c0-0.7,0.1-1.3,0.3-1.9c0.2-0.6,0.5-1,0.9-1.4c0.4-0.4,0.9-0.7,1.4-0.9
			S408.2,292,408.8,292z M406.4,296.6c0,0.5,0.1,1,0.2,1.4c0.1,0.4,0.3,0.7,0.5,1s0.5,0.4,0.7,0.6s0.6,0.2,0.9,0.2
			c0.3,0,0.6-0.1,0.9-0.2c0.3-0.1,0.5-0.3,0.7-0.6c0.2-0.3,0.4-0.6,0.5-1c0.1-0.4,0.2-0.8,0.2-1.4c0-0.5-0.1-1-0.2-1.4
			s-0.3-0.7-0.5-1c-0.2-0.3-0.5-0.4-0.7-0.6c-0.3-0.1-0.6-0.2-0.9-0.2c-0.3,0-0.6,0.1-0.9,0.2c-0.3,0.1-0.5,0.3-0.7,0.6
			c-0.2,0.3-0.4,0.6-0.5,1C406.5,295.6,406.4,296.1,406.4,296.6z"/>
		<path class="st5" d="M417.5,292c0.6,0,1.1,0.1,1.5,0.2c0.4,0.1,0.8,0.3,1.2,0.4l-0.4,1.4c-0.4-0.2-0.8-0.3-1.1-0.4s-0.7-0.1-1-0.1
			c-0.4,0-0.8,0.1-1,0.3c-0.2,0.2-0.4,0.4-0.4,0.7c0,0.3,0.1,0.5,0.3,0.7s0.6,0.3,1,0.5l0.8,0.3c0.7,0.2,1.2,0.6,1.6,1
			c0.4,0.4,0.6,1,0.6,1.6c0,0.4-0.1,0.7-0.2,1.1c-0.1,0.3-0.4,0.6-0.6,0.9c-0.3,0.2-0.6,0.4-1,0.6c-0.4,0.1-0.9,0.2-1.5,0.2
			c-1.1,0-2-0.2-2.9-0.6l0.4-1.4c0.4,0.2,0.8,0.3,1.2,0.5c0.4,0.1,0.8,0.2,1.2,0.2c0.5,0,0.9-0.1,1.1-0.3c0.3-0.2,0.4-0.4,0.4-0.8
			c0-0.1,0-0.2-0.1-0.3c0-0.1-0.1-0.2-0.2-0.3c-0.1-0.1-0.3-0.2-0.5-0.3c-0.2-0.1-0.4-0.2-0.7-0.3l-0.7-0.3
			c-0.3-0.1-0.6-0.2-0.9-0.4c-0.3-0.1-0.5-0.3-0.7-0.5c-0.2-0.2-0.3-0.4-0.4-0.7c-0.1-0.3-0.2-0.6-0.2-0.9c0-0.4,0.1-0.7,0.2-1.1
			c0.1-0.3,0.3-0.6,0.6-0.8s0.6-0.4,1-0.5C416.5,292.1,417,292,417.5,292z"/>
		<path class="st5" d="M428.2,292.2v1.5h-2.5v7.3h-1.9v-7.3h-2.4v-1.5H428.2z"/>
	</g>
	<path class="st6" d="M391.9,473.5"/>
	<path class="st6" d="M391.9,473.5"/>
	<path class="st6" d="M391.9,473.5"/>
	<g>
		<path class="st4" d="M395,490h-31c-0.6,0-1-0.4-1-1v-12c0-0.6,0.4-1,1-1h66c0.6,0,1,0.4,1,1v12c0,0.6,0.4,1,1,1l0,0
			c0.6,0,1-0.4,1-1v-12c0-1.7-1.3-3-3-3h-66c-1.7,0-3,1.3-3,3v12c0,1.7,1.3,3,3,3h31c0.6,0,1-0.4,1-1S395.6,490,395,490z"/>
		<line class="st0" x1="421" y1="480" x2="367" y2="480"/>
		<line class="st0" x1="427" y1="480" x2="425" y2="480"/>
		<path class="st0" d="M387.9,475.5"/>
		<path class="st0" d="M387.9,475.5"/>
		<path class="st0" d="M387.9,475.5"/>
		<circle class="st0" cx="367.5" cy="485.5" r="0.5"/>
		<circle class="st0" cx="373.5" cy="485.5" r="0.5"/>
		<circle class="st0" cx="379.5" cy="485.5" r="0.5"/>
		<path class="st4" d="M392,511h-28c-0.6,0-1-0.4-1-1v-12c0-0.6,0.4-1,1-1h28c0.6,0,1-0.4,1-1l0,0c0-0.6-0.4-1-1-1h-28
			c-1.7,0-3,1.3-3,3v12c0,1.7,1.3,3,3,3h28c0.6,0,1-0.4,1-1l0,0C393,511.4,392.6,511,392,511z"/>
		<line class="st0" x1="379" y1="501" x2="367" y2="501"/>
		<path class="st0" d="M387.9,496.5"/>
		<path class="st0" d="M387.9,496.5"/>
		<path class="st0" d="M387.9,496.5"/>
		<circle class="st0" cx="367.5" cy="506.5" r="0.5"/>
		<circle class="st0" cx="373.5" cy="506.5" r="0.5"/>
		<circle class="st0" cx="379.5" cy="506.5" r="0.5"/>
		<path class="st4" d="M431,531c0,0.6-0.4,1-1,1h-66c-0.6,0-1-0.4-1-1v-12c0-0.6,0.4-1,1-1h31c0.6,0,1-0.4,1-1l0,0c0-0.6-0.4-1-1-1
			h-31c-1.7,0-3,1.3-3,3v12c0,1.7,1.3,3,3,3h66c1.7,0,3-1.3,3-3v-12c0-0.6-0.4-1-1-1l0,0c-0.6,0-1,0.4-1,1V531z"/>
		<line class="st0" x1="395" y1="522" x2="367" y2="522"/>
		<line class="st0" x1="401" y1="522" x2="399" y2="522"/>
		<path class="st0" d="M387.9,517.5"/>
		<path class="st0" d="M387.9,517.5"/>
		<path class="st0" d="M387.9,517.5"/>
		<circle class="st0" cx="367.5" cy="527.5" r="0.5"/>
		<circle class="st0" cx="373.5" cy="527.5" r="0.5"/>
		<circle class="st0" cx="379.5" cy="527.5" r="0.5"/>
		<polyline class="st0" points="365,546 365,538 429,538 429,546 		"/>
		<circle class="st0" cx="414" cy="504" r="18"/>
		<circle class="st0" cx="426.5" cy="527.5" r="0.5"/>
		<circle class="st0" cx="420.5" cy="527.5" r="0.5"/>
		<line class="st0" x1="386" y1="501" x2="384" y2="501"/>
		<polyline class="st0" points="401,505 406,505 411,496 417,512 422,504 427,504 		"/>
	</g>
	<polyline class="st7" points="46,498 46,485 62,485 	"/>
	<line class="st7" x1="66" y1="485" x2="68" y2="485"/>
	<line class="st7" x1="86" y1="516" x2="112" y2="516"/>
	<line class="st7" x1="42.6" y1="481" x2="112" y2="481"/>
	<path class="st5" d="M44,474h10h46h10c1.7,0,3,1.4,3,3v47c0,1.7-1.3,3-3,3H56c-0.6,0-1-0.4-1-1s0.4-1,1-1h54c0.6,0,1-0.5,1-1v-47
		c0-0.5-0.4-1-1-1h-10H54H44c-0.5,0-1,0.5-1,1v41c0,0.6-0.4,1-1,1l0,0c-0.6,0-1-0.4-1-1v-41C41,475.4,42.3,474,44,474z"/>
	<g>
		<path class="st7" d="M61.7,504.7l-18.8,18.8c-1.1,1.1-1.1,2.8,0,3.9l0,0c1.1,1.1,2.8,1.1,3.9,0l18.8-18.9"/>
		<polyline class="st7" points="63.2,499.3 60.2,502.2 67.9,509.9 70.9,507 		"/>
		<path class="st7" d="M70.4,495.9l1-1c1.1-1.1,2.8-1.1,3.9,0l0,0c1.1,1.1,1.1,2.8,0,3.9l-1,1"/>
		<path class="st7" d="M57.6,497.3"/>
		<path class="st7" d="M69.9,500.3"/>
		<g>
			<path class="st7" d="M67.9,503.2c5.6,5.6,9.6,11.6,11.4,16.7c0.3,0.9,1.6,0.7,1.6-0.2c0.8-6.5-2.3-14.5-8.7-20.8
				c-6.4-6.3-14.3-9.4-20.8-8.7c-0.9,0.1-1.1,1.4-0.2,1.6C56.3,493.6,62.4,497.6,67.9,503.2z"/>
		</g>
	</g>
	<line class="st7" x1="65" y1="516" x2="72" y2="516"/>
	<g>
		<path class="st5" d="M96,541c0.5,0,1,0.5,1,1v2c0,0.5-0.5,1-1,1H58c-0.5,0-1-0.5-1-1v-2c0-0.5,0.5-1,1-1H96 M96,539H58
			c-1.7,0-3,1.3-3,3v2c0,1.7,1.3,3,3,3h38c1.7,0,3-1.3,3-3v-2C99,540.3,97.7,539,96,539L96,539z"/>
	</g>
	<line class="st7" x1="64" y1="539" x2="66" y2="528"/>
	<line class="st7" x1="90" y1="539" x2="88" y2="528"/>
	<polyline class="st7" points="82,502 90.5,493.5 99,500 107.5,491.5 	"/>
	<circle class="st8" cx="90.5" cy="493.5" r="2.5"/>
	<circle class="st8" cx="99.5" cy="499.5" r="2.5"/>
	<g>
		<path class="st7" d="M258,533h-58c-2.2,0-4-1.8-4-4v-50c0-2.2,1.8-4,4-4h68c2.2,0,4,1.8,4,4v26"/>
		<line class="st7" x1="196" y1="483" x2="272" y2="483"/>
		<circle class="st5" cx="200" cy="479" r="1"/>
		<circle class="st5" cx="204" cy="479" r="1"/>
		<circle class="st5" cx="208" cy="479" r="1"/>
		<path class="st7" d="M200,520v8c0,1.1,0.9,2,2,2h5"/>
		<line class="st7" x1="211" y1="530" x2="213" y2="530"/>
		<polyline class="st7" points="255,487 268,487 268,489 		"/>
		<line class="st7" x1="251" y1="487" x2="249" y2="487"/>
		<path class="st7" d="M260,546h18c1.1,0,2-0.9,2-2v-37c0-1.1-0.9-2-2-2h-18c-1.1,0-2,0.9-2,2v37C258,545.1,258.9,546,260,546z"/>
		<line class="st7" x1="258" y1="509" x2="280" y2="509"/>
		<line class="st7" x1="258" y1="543" x2="280" y2="543"/>
		<line class="st7" x1="253" y1="539" x2="239" y2="539"/>
		<line class="st7" x1="253" y1="544" x2="246" y2="544"/>
		<polyline class="st7" points="267,514 262,514 262,520 		"/>
		<line class="st7" x1="262" y1="524" x2="262" y2="526"/>
		<polyline class="st7" points="276,529 276,539 273,539 		"/>
		<path class="st8" d="M238.7,520.7c0,2.9-2.3,5.2-5.2,5.2s-5.2-2.3-5.2-5.2"/>
		<path class="st8" d="M244.7,511.4v-8.2c0-6.2-5-11.2-11.2-11.2l0,0c-6.2,0-11.2,5-11.2,11.2v8.2l0,0c-2.1,0-3.7,1.6-3.7,3.7v3.7
			h29.9v-3.7C248.5,513.1,246.8,511.4,244.7,511.4L244.7,511.4z"/>
		<path class="st8" d="M226,504.5c0-4.7,3.8-8.5,8.5-8.5"/>
	</g>
</g>
</svg>
